<svg xmlns="http://www.w3.org/2000/svg" xmlns:xlink="http://www.w3.org/1999/xlink" xmlns:lucid="lucid" width="1511.64" height="1168.08"><g transform="translate(0 0)" lucid:page-tab-id="nAeB_IeilSWc"><path d="M0 0h1511.64v1168.08H0z" fill="#fff"/><path d="M1430 120c16.57 0 30 13.43 30 30v901.48c0 16.57-13.43 30-30 30H110c-16.57 0-30-13.43-30-30V150c0-16.57 13.43-30 30-30z" stroke="#666" stroke-width="5" fill="none"/><path d="M129.85 645c0-2.76 2.24-5 5-5H415c2.76 0 5 2.24 5 5v110c0 2.76-2.24 5-5 5H134.85c-2.76 0-5-2.24-5-5z" stroke="#666" stroke-width="5" fill="#fff"/><use xlink:href="#a" transform="matrix(1,0,0,1,129.84905660377353,640) translate(15.972046645702315 79.61530398322853)"/><path d="M379.92 972.32c0 7-46.97 12.68-104.92 12.68s-104.92-5.68-104.92-12.68V870.84c0-7 46.97-12.7 104.92-12.7s104.92 5.7 104.92 12.7z" stroke="#666" stroke-width="5" fill="#fff"/><path d="M379.92 870.84c0 7-46.97 12.68-104.92 12.68s-104.92-5.68-104.92-12.68" stroke="#666" stroke-width="5" fill="none"/><path d="M460 685c0-2.76 2.24-5 5-5h280.15c2.76 0 5 2.24 5 5v110c0 2.76-2.24 5-5 5H465c-2.76 0-5-2.24-5-5z" stroke="#666" stroke-width="5" fill="#fff"/><use xlink:href="#a" transform="matrix(1,0,0,1,460,680) translate(15.972046645702315 79.61530398322853)"/><path d="M710.08 1012.32c0 7-46.98 12.68-104.93 12.68-57.95 0-104.92-5.68-104.92-12.68V910.84c0-7 46.97-12.7 104.92-12.7s104.93 5.7 104.93 12.7z" stroke="#666" stroke-width="5" fill="#fff"/><path d="M710.08 910.84c0 7-46.98 12.68-104.93 12.68-57.95 0-104.92-5.68-104.92-12.68" stroke="#666" stroke-width="5" fill="none"/><path d="M605.08 800v48.58h.07v48.57" stroke="#999" stroke-width="5" fill="none"/><path d="M609.7 814.27h-9.26l4.64-14.27z" fill="#999"/><path d="M613.15 816.77H597l5.45-16.77h5.25zm-9.27-5h2.4l-1.2-3.68zM607.65 898.2l-2.5-.05-2.5.06v-1.05h5z" fill="#999"/><path d="M800 645c0-2.76 2.24-5 5-5h280.15c2.76 0 5 2.24 5 5v110c0 2.76-2.24 5-5 5H805c-2.76 0-5-2.24-5-5z" stroke="#666" stroke-width="5" fill="#fff"/><use xlink:href="#a" transform="matrix(1,0,0,1,800,640) translate(15.972046645702315 79.61530398322853)"/><path d="M1050.08 972.32c0 7-46.98 12.68-104.93 12.68-57.95 0-104.92-5.68-104.92-12.68V870.84c0-7 46.97-12.7 104.92-12.7s104.93 5.7 104.93 12.7z" stroke="#666" stroke-width="5" fill="#fff"/><path d="M1050.08 870.84c0 7-46.98 12.68-104.93 12.68-57.95 0-104.92-5.68-104.92-12.68" stroke="#666" stroke-width="5" fill="none"/><path d="M945.08 760v48.58h.07v48.57" stroke="#999" stroke-width="5" fill="none"/><path d="M949.7 774.27h-9.26l4.64-14.27z" fill="#999"/><path d="M953.15 776.77H937l5.45-16.77h5.25zm-9.27-5h2.4l-1.2-3.68zM947.65 858.2l-2.5-.05-2.5.06v-1.05h5z" fill="#999"/><path d="M1130.15 685c0-2.76 2.24-5 5-5h280.15c2.76 0 5 2.24 5 5v110c0 2.76-2.24 5-5 5h-280.15c-2.76 0-5-2.24-5-5z" stroke="#666" stroke-width="5" fill="#fff"/><use xlink:href="#a" transform="matrix(1,0,0,1,1130.1509433962265,680) translate(15.972046645702315 79.61530398322853)"/><path d="M1380.23 1012.32c0 7-46.98 12.68-104.93 12.68-57.95 0-104.92-5.68-104.92-12.68V910.84c0-7 46.97-12.7 104.92-12.7s104.93 5.7 104.93 12.7z" stroke="#666" stroke-width="5" fill="#fff"/><path d="M1380.23 910.84c0 7-46.98 12.68-104.93 12.68-57.95 0-104.92-5.68-104.92-12.68" stroke="#666" stroke-width="5" fill="none"/><path d="M649.57 165c0-2.76 2.24-5 5-5h202.5c2.76 0 5 2.24 5 5v151.88c0 2.76-2.24 5-5 5h-202.5c-2.76 0-5-2.24-5-5z" stroke="#666" stroke-width="5" fill="#fff"/><use xlink:href="#b" transform="matrix(1,0,0,1,649.5676100628932,160) translate(58.37388626834381 103.99030398322853)"/><path d="M755.82 160V40" stroke="#999" stroke-width="5" fill="none"/><path d="M755.82 160l-4.64-14.27h9.27z" fill="#999"/><path d="M758.45 160h-5.26l-5.46-16.77h16.15zm-3.83-11.77l1.2 3.68 1.2-3.67z" fill="#999"/><path d="M755.82 321.88v154.06c0 2.76 2.24 5 5 5h179.26c2.76 0 5 2.24 5 5V640" stroke="#999" stroke-width="5" fill="none"/><path fill="#999"/><path d="M945.08 640l-4.64-14.27h9.27z" fill="#999"/><path d="M947.7 640h-5.25L937 623.23h16.15zm-3.82-11.77l1.2 3.68 1.2-3.67z" fill="#999"/><path d="M800 700h-19.92c-2.77 0-5-2.24-5-5v-50c0-2.76-2.24-5-5-5h-160c-2.77 0-5 2.24-5 5v35" stroke="#999" stroke-width="5" fill="none"/><path fill="#999"/><path d="M605.08 680l-4.64-14.27h9.27z" fill="#999"/><path d="M607.7 680h-5.25L597 663.23h16.15zm-3.82-11.77l1.2 3.68 1.2-3.67z" fill="#999"/><defs><path fill="#333" d="M80-683c59-12 137-18 203-18 187 1 322 54 322 228 0 106-52 157-130 190 65 83 124 182 172 283H472c-49-87-99-179-159-253h-77V0H80v-683zm364 209c1-96-110-98-208-91v188c111-1 207 3 208-97" id="c"/><path fill="#333" d="M323 14C144 14 45-83 45-259c0-170 90-275 252-281 176-6 262 133 239 326H198c8 66 67 100 145 100 51 0 111-11 145-26l20 121C460 2 393 14 323 14zm72-330c13-111-157-138-187-38-4 12-8 25-10 38h197" id="d"/><path fill="#333" d="M273 12C125 12 65-67 65-215v-442l149-24v155h179v124H214v185c2 63 16 104 83 103 34 0 71-7 96-17l21 116c-41 16-81 27-141 27" id="e"/><path fill="#333" d="M70-498c86-33 237-58 342-19l-25 123c-45-13-116-24-168-8V0H70v-498" id="f"/><path fill="#333" d="M219 0H70v-526h149V0zm-75-766c49 0 89 36 89 88s-40 88-89 88-89-36-89-88 40-88 89-88" id="g"/><path fill="#333" d="M540-526C484-337 414-152 337 0H213C136-152 65-338 10-526h158c31 116 69 239 109 347 39-108 78-231 109-347h154" id="h"/><g id="a"><use transform="matrix(0.05725890985324948,0,0,0.05725890985324948,0,0)" xlink:href="#c"/><use transform="matrix(0.05725890985324948,0,0,0.05725890985324948,36.76022012578617,0)" xlink:href="#d"/><use transform="matrix(0.05725890985324948,0,0,0.05725890985324948,70.19942348008387,0)" xlink:href="#e"/><use transform="matrix(0.05725890985324948,0,0,0.05725890985324948,95.62237945492663,0)" xlink:href="#f"/><use transform="matrix(0.05725890985324948,0,0,0.05725890985324948,119.78563941299791,0)" xlink:href="#g"/><use transform="matrix(0.05725890985324948,0,0,0.05725890985324948,136.33346436058702,0)" xlink:href="#d"/><use transform="matrix(0.05725890985324948,0,0,0.05725890985324948,169.7726677148847,0)" xlink:href="#h"/><use transform="matrix(0.05725890985324948,0,0,0.05725890985324948,200.4634433962264,0)" xlink:href="#d"/><use transform="matrix(0.05725890985324948,0,0,0.05725890985324948,233.9026467505241,0)" xlink:href="#f"/></g><path fill="#333" d="M10 0c86-246 171-474 276-693h149C539-473 626-245 711 0H544c-15-49-35-101-51-150H223c-16 49-36 101-51 150H10zm347-536c-31 85-67 173-98 262h197c-31-90-66-177-99-262" id="i"/><path fill="#333" d="M80-683c58-12 143-18 208-18 190 0 321 53 321 233 0 198-160 242-373 236V0H80v-683zm368 214c0-104-112-104-212-96v200c112 0 212 3 212-104" id="j"/><path fill="#333" d="M80-693h156V0H80v-693" id="k"/><g id="b"><use transform="matrix(0.05725890985324948,0,0,0.05725890985324948,0,0)" xlink:href="#i"/><use transform="matrix(0.05725890985324948,0,0,0.05725890985324948,41.283674004192875,0)" xlink:href="#j"/><use transform="matrix(0.05725890985324948,0,0,0.05725890985324948,78.15841194968554,0)" xlink:href="#k"/></g></defs></g></svg>