<svg xmlns="http://www.w3.org/2000/svg" xmlns:xlink="http://www.w3.org/1999/xlink" width="1312.53" height="560.22"><g transform="translate(0 0)"><path d="M0 0h1312.53v560.22H0z" fill="#fff"/><path d="M32.68 37c0-2.75 2.24-5 5-5h838c2.76 0 5 2.25 5 5v75.35c0 2.76-2.24 5-5 5h-838c-2.76 0-5-2.24-5-5z" fill="none"/><use xlink:href="#a" transform="matrix(1,0,0,1,32.67924528301893,32.0125786163522) translate(0 50.111111111111114)"/><use xlink:href="#b" transform="matrix(1,0,0,1,32.67924528301893,32.0125786163522) translate(212.93827160493828 50.111111111111114)"/><use xlink:href="#c" transform="matrix(1,0,0,1,32.67924528301893,32.0125786163522) translate(234.5679012345679 50.111111111111114)"/><use xlink:href="#d" transform="matrix(1,0,0,1,32.67924528301893,32.0125786163522) translate(344.8888888888889 50.111111111111114)"/><use xlink:href="#e" transform="matrix(1,0,0,1,32.67924528301893,32.0125786163522) translate(445.925925925926 50.111111111111114)"/><path d="M32 99h1251" stroke="#999" stroke-width="2" fill="none"/><path d="M1284.58 98.75L1283 99v-1h2.6z" fill="#999"/><path d="M600 56c0-2.76 2.24-5 5-5h678c2.76 0 5 2.24 5 5v38c0 2.76-2.24 5-5 5H605c-2.76 0-5-2.24-5-5z" fill="none"/><use xlink:href="#f" transform="matrix(1,0,0,1,600,51) translate(363.8024691358057 28.4444444444444)"/><use xlink:href="#g" transform="matrix(1,0,0,1,600,51) translate(415.59259259259534 28.4444444444444)"/><use xlink:href="#h" transform="matrix(1,0,0,1,600,51) translate(502.01234567901423 28.4444444444444)"/><use xlink:href="#i" transform="matrix(1,0,0,1,600,51) translate(526.2716049382732 28.4444444444444)"/><use xlink:href="#j" transform="matrix(1,0,0,1,600,51) translate(601.5802469135812 28.4444444444444)"/><use xlink:href="#k" transform="matrix(1,0,0,1,600,51) translate(638.6172839506178 28.4444444444444)"/><path d="M540 140v73.68c0 2.76 2.24 5 5 5h33.2c2.77 0 5 2.24 5 5v86.97" stroke="#999" stroke-width="2" fill="none"/><path d="M583.2 310.65l-4.63-14.27h9.27z" fill="#999"/><path d="M584.26 310.65h-2.1l-4.96-15.27h12.02zm-4.3-13.27l3.25 10.03 3.27-10.02z" fill="#999"/><use xlink:href="#l" transform="matrix(1,0,0,1,591.2081657136591,216.98233795008852) translate(0.004999999999999005 14.4)"/><path d="M289.2 369.3v-93.82c0-2.76 2.25-5 5-5H415.7c2.76 0 5 2.24 5 5V355c0 2.76 2.24 5 5 5H520" stroke="#999" stroke-width="2" fill="none"/><path d="M289.2 369.3l-4.63-14.27h9.27z" fill="#999"/><path d="M290.26 369.3h-2.1l-4.96-15.27h12.02zm-4.3-13.27l3.25 10.03 3.27-10.03z" fill="#999"/><use xlink:href="#m" transform="matrix(1,0,0,1,294.11221369787347,244.8826070282654) translate(0.005000000000002558 14.4)"/><use xlink:href="#n" transform="matrix(1,0,0,1,294.11221369787347,244.8826070282654) translate(64.75500000000002 14.4)"/><path d="M646.42 360h19.26c2.76 0 5-2.24 5-5v-89.44c0-2.76 2.24-5 5-5h342.1c2.77 0 5 2.24 5 5v44.38" stroke="#999" stroke-width="2" fill="none"/><path d="M1022.8 309.94l-4.64-14.27h9.27z" fill="#999"/><path d="M1023.84 309.94h-2.1l-4.96-15.27h12.02zm-4.3-13.27l3.25 10.03 3.25-10.03z" fill="#999"/><use xlink:href="#m" transform="matrix(1,0,0,1,678.6792452830189,284.92477355005065) translate(0.005000000000002558 14.4)"/><use xlink:href="#n" transform="matrix(1,0,0,1,678.6792452830189,284.92477355005065) translate(64.75500000000002 14.4)"/><path d="M100 473c0-2.76 2.24-5 5-5h230c2.76 0 5 2.24 5 5v50c0 2.76-2.24 5-5 5H105c-2.76 0-5-2.24-5-5z" fill="none"/><use xlink:href="#o" transform="matrix(1,0,0,1,100,468) translate(76.1 33.6)"/><use xlink:href="#p" transform="matrix(1,0,0,1,100,468) translate(153.9 33.6)"/><path d="M540 474c0-2.76 2.24-5 5-5h230c2.76 0 5 2.24 5 5v50c0 2.76-2.24 5-5 5H545c-2.76 0-5-2.24-5-5z" fill="none"/><use xlink:href="#o" transform="matrix(1,0,0,1,540,469) translate(76.1 33.6)"/><use xlink:href="#q" transform="matrix(1,0,0,1,540,469) translate(153.9 33.6)"/><path d="M980 474c0-2.76 2.24-5 5-5h230c2.76 0 5 2.24 5 5v50c0 2.76-2.24 5-5 5H985c-2.76 0-5-2.24-5-5z" fill="none"/><use xlink:href="#o" transform="matrix(1,0,0,1,979.9999999999998,469) translate(76.1 33.6)"/><use xlink:href="#r" transform="matrix(1,0,0,1,979.9999999999998,469) translate(153.9 33.6)"/><path d="M520 315.65c0-2.76 2.24-5 5-5h116.42c2.76 0 5 2.24 5 5v88.7c0 2.76-2.24 5-5 5H525c-2.76 0-5-2.24-5-5z" stroke="#666" stroke-width="2" fill="#fff"/><g><use xlink:href="#s" transform="matrix(1,0,0,1,520,310.64671872206) translate(24.054999999999993 54.61875)"/></g><path d="M666 375c0-2.76 2.24-5 5-5h116.42c2.76 0 5 2.24 5 5v88.7c0 2.77-2.24 5-5 5H671c-2.76 0-5-2.23-5-5z" stroke="#666" stroke-width="2" fill="#fff"/><g><use xlink:href="#s" transform="matrix(1,0,0,1,666,370) translate(24.054999999999993 54.61875)"/></g><path d="M959.58 314.94c0-2.76 2.24-5 5-5H1081c2.76 0 5 2.24 5 5v88.7c0 2.77-2.24 5-5 5H964.58c-2.76 0-5-2.23-5-5z" stroke="#666" stroke-width="2" fill="#fff"/><g><use xlink:href="#s" transform="matrix(1,0,0,1,959.5836685726816,309.9401561661799) translate(24.054999999999993 54.61875)"/></g><path d="M1105.58 374.3c0-2.77 2.24-5 5-5H1227c2.76 0 5 2.23 5 5V463c0 2.76-2.24 5-5 5h-116.42c-2.76 0-5-2.24-5-5z" stroke="#666" stroke-width="2" fill="#fff"/><g><use xlink:href="#s" transform="matrix(1,0,0,1,1105.5836685726817,369.29343744411995) translate(24.054999999999993 54.61875)"/></g><path d="M80 314.94c0-2.76 2.24-5 5-5h116.42c2.76 0 5 2.24 5 5v88.7c0 2.77-2.24 5-5 5H85c-2.76 0-5-2.23-5-5z" stroke="#666" stroke-width="2" fill="#fff"/><g><use xlink:href="#s" transform="matrix(1,0,0,1,80,309.9401561661799) translate(24.054999999999993 54.61875)"/></g><path d="M226 374.3c0-2.77 2.24-5 5-5h116.42c2.76 0 5 2.23 5 5V463c0 2.76-2.24 5-5 5H231c-2.76 0-5-2.24-5-5z" stroke="#666" stroke-width="2" fill="#fff"/><g><use xlink:href="#s" transform="matrix(1,0,0,1,226,369.29343744411995) translate(24.054999999999993 54.61875)"/></g><defs><path fill="#999" d="M240-174c0 40-23 61-54 70L253 0h-59l-57-94H76V0H24v-248c93 4 217-23 216 74zM76-134c48-2 112 12 112-38 0-48-66-32-112-35v73" id="t"/><path fill="#999" d="M24 0v-248h195v40H76v63h132v40H76v65h150V0H24" id="u"/><path fill="#999" d="M136-208V0H84v-208H4v-40h212v40h-80" id="v"/><path fill="#999" d="M24 0v-248h52V0H24" id="w"/><path fill="#999" d="M147 0H94L2-248h55l64 206c17-72 42-137 63-206h54" id="x"/><g id="a"><use transform="matrix(0.09876543209876544,0,0,0.09876543209876544,0,0)" xlink:href="#t"/><use transform="matrix(0.09876543209876544,0,0,0.09876543209876544,25.58024691358025,0)" xlink:href="#u"/><use transform="matrix(0.09876543209876544,0,0,0.09876543209876544,49.283950617283956,0)" xlink:href="#v"/><use transform="matrix(0.09876543209876544,0,0,0.09876543209876544,70.91358024691358,0)" xlink:href="#t"/><use transform="matrix(0.09876543209876544,0,0,0.09876543209876544,96.49382716049384,0)" xlink:href="#w"/><use transform="matrix(0.09876543209876544,0,0,0.09876543209876544,106.37037037037038,0)" xlink:href="#u"/><use transform="matrix(0.09876543209876544,0,0,0.09876543209876544,130.07407407407408,0)" xlink:href="#x"/><use transform="matrix(0.09876543209876544,0,0,0.09876543209876544,153.77777777777777,0)" xlink:href="#u"/><use transform="matrix(0.09876543209876544,0,0,0.09876543209876544,177.48148148148147,0)" xlink:href="#t"/></g><path fill="#999" d="M14-72v-43h91v43H14" id="y"/><use transform="matrix(0.09876543209876544,0,0,0.09876543209876544,0,0)" xlink:href="#y" id="b"/><path fill="#999" d="M199 0l-22-63H83L61 0H9l90-248h61L250 0h-51zm-33-102l-36-108c-10 38-24 72-36 108h72" id="z"/><path fill="#999" d="M24-248c120-7 223 5 221 122C244-46 201 0 124 0H24v-248zM76-40c74 7 117-18 117-86 0-67-45-88-117-82v168" id="A"/><g id="c"><use transform="matrix(0.09876543209876544,0,0,0.09876543209876544,0,0)" xlink:href="#t"/><use transform="matrix(0.09876543209876544,0,0,0.09876543209876544,25.58024691358025,0)" xlink:href="#u"/><use transform="matrix(0.09876543209876544,0,0,0.09876543209876544,49.283950617283956,0)" xlink:href="#z"/><use transform="matrix(0.09876543209876544,0,0,0.09876543209876544,74.8641975308642,0)" xlink:href="#A"/></g><path fill="#999" d="M24-248c93 1 206-16 204 79-1 75-69 88-152 82V0H24v-248zm52 121c47 0 100 7 100-41 0-47-54-39-100-39v80" id="B"/><path fill="#999" d="M186 0v-106H76V0H24v-248h52v99h110v-99h50V0h-50" id="C"/><g id="d"><use transform="matrix(0.09876543209876544,0,0,0.09876543209876544,0,0)" xlink:href="#B"/><use transform="matrix(0.09876543209876544,0,0,0.09876543209876544,21.037037037037038,0)" xlink:href="#z"/><use transform="matrix(0.09876543209876544,0,0,0.09876543209876544,43.95061728395062,0)" xlink:href="#v"/><use transform="matrix(0.09876543209876544,0,0,0.09876543209876544,65.58024691358025,0)" xlink:href="#C"/></g><path fill="#999" d="M67-93c0 74 22 123 53 168H70C40 30 18-18 18-93s22-123 52-168h50c-32 44-53 94-53 168" id="D"/><path fill="#999" d="M169-182c-1-43-94-46-97-3 18 66 151 10 154 114 3 95-165 93-204 36-6-8-10-19-12-30l50-8c3 46 112 56 116 5-17-69-150-10-154-114-4-87 153-88 188-35 5 8 8 18 10 28" id="E"/><path fill="#999" d="M230 0l2-204L168 0h-37L68-204 70 0H24v-248h70l56 185 57-185h69V0h-46" id="F"/><path fill="#999" d="M24 0v-248h52v208h133V0H24" id="G"/><path fill="#999" d="M76-208v77h127v40H76V0H24v-248h183v40H76" id="H"/><path fill="#999" d="M102-93c0 74-22 123-52 168H0C30 29 54-18 53-93c0-74-22-123-53-168h50c30 45 52 94 52 168" id="I"/><g id="e"><use transform="matrix(0.09876543209876544,0,0,0.09876543209876544,0,0)" xlink:href="#D"/><use transform="matrix(0.09876543209876544,0,0,0.09876543209876544,11.753086419753087,0)" xlink:href="#E"/><use transform="matrix(0.09876543209876544,0,0,0.09876543209876544,35.45679012345679,0)" xlink:href="#w"/><use transform="matrix(0.09876543209876544,0,0,0.09876543209876544,45.333333333333336,0)" xlink:href="#F"/><use transform="matrix(0.09876543209876544,0,0,0.09876543209876544,74.8641975308642,0)" xlink:href="#B"/><use transform="matrix(0.09876543209876544,0,0,0.09876543209876544,98.56790123456791,0)" xlink:href="#G"/><use transform="matrix(0.09876543209876544,0,0,0.09876543209876544,120.19753086419755,0)" xlink:href="#w"/><use transform="matrix(0.09876543209876544,0,0,0.09876543209876544,130.07407407407408,0)" xlink:href="#H"/><use transform="matrix(0.09876543209876544,0,0,0.09876543209876544,151.7037037037037,0)" xlink:href="#w"/><use transform="matrix(0.09876543209876544,0,0,0.09876543209876544,161.58024691358025,0)" xlink:href="#u"/><use transform="matrix(0.09876543209876544,0,0,0.09876543209876544,185.28395061728395,0)" xlink:href="#A"/><use transform="matrix(0.09876543209876544,0,0,0.09876543209876544,210.8641975308642,0)" xlink:href="#I"/></g><path fill="#999" d="M185-189c-5-48-123-54-124 2 14 75 158 14 163 119 3 78-121 87-175 55-17-10-28-26-33-46l33-7c5 56 141 63 141-1 0-78-155-14-162-118-5-82 145-84 179-34 5 7 8 16 11 25" id="J"/><path fill="#999" d="M141-36C126-15 110 5 73 4 37 3 15-17 15-53c-1-64 63-63 125-63 3-35-9-54-41-54-24 1-41 7-42 31l-33-3c5-37 33-52 76-52 45 0 72 20 72 64v82c-1 20 7 32 28 27v20c-31 9-61-2-59-35zM48-53c0 20 12 33 32 33 41-3 63-29 60-74-43 2-92-5-92 41" id="K"/><path fill="#999" d="M210-169c-67 3-38 105-44 169h-31v-121c0-29-5-50-35-48C34-165 62-65 56 0H25l-1-190h30c1 10-1 24 2 32 10-44 99-50 107 0 11-21 27-35 58-36 85-2 47 119 55 194h-31v-121c0-29-5-49-35-48" id="L"/><g id="f"><use transform="matrix(0.06172839506172778,0,0,0.06172839506172778,0,0)" xlink:href="#J"/><use transform="matrix(0.06172839506172778,0,0,0.06172839506172778,14.814814814814667,0)" xlink:href="#K"/><use transform="matrix(0.06172839506172778,0,0,0.06172839506172778,27.160493827160224,0)" xlink:href="#L"/></g><path fill="#999" d="M59-47c-2 24 18 29 38 22v24C64 9 27 4 27-40v-127H5v-23h24l9-43h21v43h35v23H59v120" id="M"/><path fill="#999" d="M100-194c62-1 85 37 85 99 1 63-27 99-86 99S16-35 15-95c0-66 28-99 85-99zM99-20c44 1 53-31 53-75 0-43-8-75-51-75s-53 32-53 75 10 74 51 75" id="N"/><path fill="#999" d="M143 0L79-87 56-68V0H24v-261h32v163l83-92h37l-77 82L181 0h-38" id="O"/><path fill="#999" d="M100-194c63 0 86 42 84 106H49c0 40 14 67 53 68 26 1 43-12 49-29l28 8c-11 28-37 45-77 45C44 4 14-33 15-96c1-61 26-98 85-98zm52 81c6-60-76-77-97-28-3 7-6 17-6 28h103" id="P"/><path fill="#999" d="M135-143c-3-34-86-38-87 0 15 53 115 12 119 90S17 21 10-45l28-5c4 36 97 45 98 0-10-56-113-15-118-90-4-57 82-63 122-42 12 7 21 19 24 35" id="Q"/><g id="g"><use transform="matrix(0.06172839506172778,0,0,0.06172839506172778,0,0)" xlink:href="#J"/><use transform="matrix(0.06172839506172778,0,0,0.06172839506172778,14.814814814814667,0)" xlink:href="#M"/><use transform="matrix(0.06172839506172778,0,0,0.06172839506172778,20.987654320987446,0)" xlink:href="#N"/><use transform="matrix(0.06172839506172778,0,0,0.06172839506172778,33.333333333333,0)" xlink:href="#O"/><use transform="matrix(0.06172839506172778,0,0,0.06172839506172778,44.444444444444,0)" xlink:href="#P"/><use transform="matrix(0.06172839506172778,0,0,0.06172839506172778,56.79012345678956,0)" xlink:href="#Q"/></g><path fill="#999" d="M32 76v-337h29V76H32" id="R"/><use transform="matrix(0.06172839506172778,0,0,0.06172839506172778,0,0)" xlink:href="#R" id="h"/><path fill="#999" d="M205 0l-28-72H64L36 0H1l101-248h38L239 0h-34zm-38-99l-47-123c-12 45-31 82-46 123h93" id="S"/><path fill="#999" d="M84 4C-5 8 30-112 23-190h32v120c0 31 7 50 39 49 72-2 45-101 50-169h31l1 190h-30c-1-10 1-25-2-33-11 22-28 36-60 37" id="T"/><path fill="#999" d="M177-190C167-65 218 103 67 71c-23-6-38-20-44-43l32-5c15 47 100 32 89-28v-30C133-14 115 1 83 1 29 1 15-40 15-95c0-56 16-97 71-98 29-1 48 16 59 35 1-10 0-23 2-32h30zM94-22c36 0 50-32 50-73 0-42-14-75-50-75-39 0-46 34-46 75s6 73 46 73" id="U"/><g id="i"><use transform="matrix(0.06172839506172778,0,0,0.06172839506172778,0,0)" xlink:href="#S"/><use transform="matrix(0.06172839506172778,0,0,0.06172839506172778,14.814814814814667,0)" xlink:href="#T"/><use transform="matrix(0.06172839506172778,0,0,0.06172839506172778,27.160493827160224,0)" xlink:href="#U"/><use transform="matrix(0.06172839506172778,0,0,0.06172839506172778,39.50617283950578,0)" xlink:href="#T"/><use transform="matrix(0.06172839506172778,0,0,0.06172839506172778,51.851851851851336,0)" xlink:href="#Q"/><use transform="matrix(0.06172839506172778,0,0,0.06172839506172778,62.96296296296234,0)" xlink:href="#M"/></g><path fill="#999" d="M27 0v-27h64v-190l-56 39v-29l58-41h29v221h61V0H27" id="V"/><path fill="#999" d="M110-160c48 1 74 30 74 79 0 53-28 85-80 85-65 0-83-55-86-122-5-90 50-162 133-122 14 7 22 21 27 39l-31 6c-5-40-67-38-82-6-9 19-15 44-15 74 11-20 30-34 60-33zm-7 138c34 0 49-23 49-58s-16-56-50-56c-29 0-50 16-49 49 1 36 15 65 50 65" id="W"/><path fill="#999" d="M68-38c1 34 0 65-14 84H32c9-13 17-26 17-46H33v-38h35" id="X"/><g id="j"><use transform="matrix(0.06172839506172778,0,0,0.06172839506172778,0,0)" xlink:href="#V"/><use transform="matrix(0.06172839506172778,0,0,0.06172839506172778,12.345679012345556,0)" xlink:href="#W"/><use transform="matrix(0.06172839506172778,0,0,0.06172839506172778,24.691358024691112,0)" xlink:href="#X"/></g><path fill="#999" d="M101-251c82-7 93 87 43 132L82-64C71-53 59-42 53-27h129V0H18c2-99 128-94 128-182 0-28-16-43-45-43s-46 15-49 41l-32-3c6-41 34-60 81-64" id="Y"/><path fill="#999" d="M101-251c68 0 85 55 85 127S166 4 100 4C33 4 14-52 14-124c0-73 17-127 87-127zm-1 229c47 0 54-49 54-102s-4-102-53-102c-51 0-55 48-55 102 0 53 5 102 54 102" id="Z"/><path fill="#999" d="M64 0c3-98 48-159 88-221H18v-27h164v26C143-157 98-101 97 0H64" id="aa"/><g id="k"><use transform="matrix(0.06172839506172778,0,0,0.06172839506172778,0,0)" xlink:href="#Y"/><use transform="matrix(0.06172839506172778,0,0,0.06172839506172778,12.345679012345556,0)" xlink:href="#Z"/><use transform="matrix(0.06172839506172778,0,0,0.06172839506172778,24.691358024691112,0)" xlink:href="#V"/><use transform="matrix(0.06172839506172778,0,0,0.06172839506172778,37.03703703703667,0)" xlink:href="#aa"/></g><path fill="#333" d="M140-251c80 0 125 45 125 126 0 70-33 111-92 124 6 28 34 38 68 31l-1 36C177 83 129 55 120 2 51-6 15-50 15-125c0-81 44-126 125-126zm-1 214c52 0 73-35 73-88 0-50-21-86-72-86-52 0-73 35-73 86s22 88 72 88" id="ab"/><path fill="#333" d="M85 4C-2 5 27-109 22-190h50c7 57-23 150 33 157 60-5 35-97 40-157h50l1 190h-47c-2-12 1-28-3-38-12 25-28 42-61 42" id="ac"/><path fill="#333" d="M185-48c-13 30-37 53-82 52C43 2 14-33 14-96s30-98 90-98c62 0 83 45 84 108H66c0 31 8 55 39 56 18 0 30-7 34-22zm-45-69c5-46-57-63-70-21-2 6-4 13-4 21h74" id="ad"/><path fill="#333" d="M135-150c-39-12-60 13-60 57V0H25l-1-190h47c2 13-1 29 3 40 6-28 27-53 61-41v41" id="ae"/><path fill="#333" d="M123 10C108 53 80 86 19 72V37c35 8 53-11 59-39L3-190h52l48 148c12-52 28-100 44-148h51" id="af"/><g id="l"><use transform="matrix(0.05,0,0,0.05,0,0)" xlink:href="#ab"/><use transform="matrix(0.05,0,0,0.05,14,0)" xlink:href="#ac"/><use transform="matrix(0.05,0,0,0.05,24.950000000000003,0)" xlink:href="#ad"/><use transform="matrix(0.05,0,0,0.05,34.95,0)" xlink:href="#ae"/><use transform="matrix(0.05,0,0,0.05,41.95,0)" xlink:href="#af"/></g><path fill="#333" d="M76-208v77h127v40H76V0H24v-248h183v40H76" id="ag"/><path fill="#333" d="M133-34C117-15 103 5 69 4 32 3 11-16 11-54c-1-60 55-63 116-61 1-26-3-47-28-47-18 1-26 9-28 27l-52-2c7-38 36-58 82-57s74 22 75 68l1 82c-1 14 12 18 25 15v27c-30 8-71 5-69-32zm-48 3c29 0 43-24 42-57-32 0-66-3-65 30 0 17 8 27 23 27" id="ah"/><path fill="#333" d="M135-194c87-1 58 113 63 194h-50c-7-57 23-157-34-157-59 0-34 97-39 157H25l-1-190h47c2 12-1 28 3 38 12-26 28-41 61-42" id="ai"/><path fill="#333" d="M110-194c64 0 96 36 96 99 0 64-35 99-97 99-61 0-95-36-95-99 0-62 34-99 96-99zm-1 164c35 0 45-28 45-65 0-40-10-65-43-65-34 0-45 26-45 65 0 36 10 65 43 65" id="aj"/><path fill="#333" d="M115-3C79 11 28 4 28-45v-112H4v-33h27l15-45h31v45h36v33H77v99c-1 23 16 31 38 25v30" id="ak"/><g id="m"><use transform="matrix(0.05,0,0,0.05,0,0)" xlink:href="#ag"/><use transform="matrix(0.05,0,0,0.05,10.950000000000001,0)" xlink:href="#ah"/><use transform="matrix(0.05,0,0,0.05,20.950000000000003,0)" xlink:href="#ai"/><use transform="matrix(0.05,0,0,0.05,31.900000000000006,0)" xlink:href="#aj"/><use transform="matrix(0.05,0,0,0.05,42.85000000000001,0)" xlink:href="#ac"/><use transform="matrix(0.05,0,0,0.05,53.80000000000001,0)" xlink:href="#ak"/></g><path fill="#333" d="M84 4C32 4 15-41 15-95c0-55 18-99 73-99 29 0 47 12 58 34l2-30h48l-1 265h-49V-32C136-9 114 4 84 4zm21-34c32 0 41-29 41-66 0-36-9-64-40-64-33 0-39 30-40 65 0 43 13 65 39 65" id="al"/><g id="n"><use transform="matrix(0.05,0,0,0.05,0,0)" xlink:href="#al"/><use transform="matrix(0.05,0,0,0.05,10.950000000000001,0)" xlink:href="#ac"/><use transform="matrix(0.05,0,0,0.05,21.900000000000002,0)" xlink:href="#ad"/><use transform="matrix(0.05,0,0,0.05,31.900000000000002,0)" xlink:href="#ae"/><use transform="matrix(0.05,0,0,0.05,38.900000000000006,0)" xlink:href="#af"/></g><path fill="#333" d="M24-248c93 1 206-16 204 79-1 75-69 88-152 82V0H24v-248zm52 121c47 0 100 7 100-41 0-47-54-39-100-39v80" id="am"/><path fill="#333" d="M25-224v-37h50v37H25zM25 0v-190h50V0H25" id="an"/><g id="o"><use transform="matrix(0.05,0,0,0.05,0,0)" xlink:href="#am"/><use transform="matrix(0.05,0,0,0.05,12,0)" xlink:href="#ah"/><use transform="matrix(0.05,0,0,0.05,22,0)" xlink:href="#ae"/><use transform="matrix(0.05,0,0,0.05,29,0)" xlink:href="#ak"/><use transform="matrix(0.05,0,0,0.05,34.95,0)" xlink:href="#an"/><use transform="matrix(0.05,0,0,0.05,39.95,0)" xlink:href="#ak"/><use transform="matrix(0.05,0,0,0.05,45.900000000000006,0)" xlink:href="#an"/><use transform="matrix(0.05,0,0,0.05,50.900000000000006,0)" xlink:href="#aj"/><use transform="matrix(0.05,0,0,0.05,61.85,0)" xlink:href="#ai"/></g><path fill="#333" d="M23 0v-37h61v-169l-59 37v-38l62-41h46v211h57V0H23" id="ao"/><use transform="matrix(0.05,0,0,0.05,0,0)" xlink:href="#ao" id="p"/><path fill="#333" d="M182-182c0 78-84 86-111 141h115V0H12c-6-101 99-100 120-180 1-22-12-31-33-32-23 0-32 14-35 34l-49-3c5-45 32-70 84-70 51 0 83 22 83 69" id="ap"/><use transform="matrix(0.05,0,0,0.05,0,0)" xlink:href="#ap" id="q"/><path fill="#333" d="M128-127c34 4 56 21 59 58 7 91-148 94-172 28-4-9-6-17-7-26l51-5c1 24 16 35 40 36 23 0 39-12 38-36-1-31-31-36-65-34v-40c32 2 59-3 59-33 0-20-13-33-34-33s-33 13-35 32l-50-3c6-44 37-68 86-68 50 0 83 20 83 66 0 35-22 52-53 58" id="aq"/><use transform="matrix(0.05,0,0,0.05,0,0)" xlink:href="#aq" id="r"/><path fill="#333" d="M240-174c0 40-23 61-54 70L253 0h-59l-57-94H76V0H24v-248c93 4 217-23 216 74zM76-134c48-2 112 12 112-38 0-48-66-32-112-35v73" id="ar"/><path fill="#333" d="M128 0H69L1-190h53L99-40l48-150h52" id="as"/><g id="s"><use transform="matrix(0.05,0,0,0.05,0,0)" xlink:href="#ar"/><use transform="matrix(0.05,0,0,0.05,12.950000000000001,0)" xlink:href="#ad"/><use transform="matrix(0.05,0,0,0.05,22.950000000000003,0)" xlink:href="#ak"/><use transform="matrix(0.05,0,0,0.05,28.900000000000002,0)" xlink:href="#ae"/><use transform="matrix(0.05,0,0,0.05,35.900000000000006,0)" xlink:href="#an"/><use transform="matrix(0.05,0,0,0.05,40.900000000000006,0)" xlink:href="#ad"/><use transform="matrix(0.05,0,0,0.05,50.900000000000006,0)" xlink:href="#as"/><use transform="matrix(0.05,0,0,0.05,60.900000000000006,0)" xlink:href="#ad"/><use transform="matrix(0.05,0,0,0.05,70.9,0)" xlink:href="#ae"/></g></defs></g></svg>