<svg xmlns="http://www.w3.org/2000/svg" xmlns:xlink="http://www.w3.org/1999/xlink" xmlns:lucid="lucid" width="1297.64" height="1002.72"><g transform="translate(0 0)" lucid:page-tab-id="XgfBhD7fHF6~"><path d="M0 0h1297.64v1002.72H0z" fill="#fff"/><path d="M180 314.7c0-2.77 2.24-5 5-5h198c2.76 0 5 2.23 5 5v90.97c0 2.76-2.24 5-5 5H185c-2.76 0-5-2.24-5-5z" stroke="#666" stroke-width="5" fill="#fff"/><use xlink:href="#a" transform="matrix(1,0,0,1,180,309.6930512715906) translate(11.699724422491196 66.58176224239548)"/><path d="M359.27 589.33c0 5.9-33.68 10.67-75.22 10.67s-75.2-4.78-75.2-10.67v-85.4c0-5.9 33.66-10.67 75.2-10.67 41.54 0 75.22 4.78 75.22 10.68z" stroke="#666" stroke-width="5" fill="#fff"/><path d="M359.27 503.94c0 5.9-33.68 10.67-75.22 10.67s-75.2-4.77-75.2-10.66" stroke="#666" stroke-width="5" fill="none"/><path d="M284 410.67v40.88h.05v40.87" stroke="#999" stroke-width="5" fill="none"/><path d="M288.63 424.94h-9.27l4.64-14.27z" fill="#999"/><path d="M292.08 427.44h-16.16l5.45-16.77h5.26zm-9.27-5h2.4l-1.2-3.68zM286.55 493.34l-2.5-.08-2.5.05v-.88h5z" fill="#999"/><path d="M524.1 230.55c0-2.77 2.23-5 5-5h198c2.76 0 5 2.23 5 5v90.97c0 2.76-2.24 5-5 5h-198c-2.77 0-5-2.24-5-5z" stroke="#666" stroke-width="5" fill="#fff"/><use xlink:href="#a" transform="matrix(1,0,0,1,524.0954618931922,225.5461096111821) translate(11.699724422491196 66.58176224239548)"/><path d="M703.37 505.18c0 5.9-33.68 10.67-75.22 10.67s-75.22-4.78-75.22-10.67v-85.4c0-5.88 33.68-10.66 75.22-10.66s75.22 4.78 75.22 10.67z" stroke="#666" stroke-width="5" fill="#fff"/><path d="M703.37 419.8c0 5.88-33.68 10.66-75.22 10.66s-75.22-4.78-75.22-10.67" stroke="#666" stroke-width="5" fill="none"/><path d="M628.1 326.52v40.88h.05v40.88" stroke="#999" stroke-width="5" fill="none"/><path d="M632.73 340.8h-9.27l4.64-14.28z" fill="#999"/><path d="M636.17 343.3h-16.15l5.45-16.78h5.25zm-9.27-5h2.4l-1.2-3.7zM630.65 409.2l-2.5-.08-2.5.05v-.9h5z" fill="#999"/><path d="M868.4 314.7c0-2.77 2.25-5 5-5h198c2.77 0 5 2.23 5 5v90.97c0 2.76-2.23 5-5 5h-198c-2.75 0-5-2.24-5-5z" stroke="#666" stroke-width="5" fill="#fff"/><use xlink:href="#a" transform="matrix(1,0,0,1,868.4073360265693,309.6930512715906) translate(11.699724422491196 66.58176224239548)"/><path d="M1047.68 589.33c0 5.9-33.68 10.67-75.22 10.67s-75.22-4.78-75.22-10.67v-85.4c0-5.9 33.68-10.67 75.22-10.67s75.22 4.78 75.22 10.68z" stroke="#666" stroke-width="5" fill="#fff"/><path d="M1047.68 503.94c0 5.9-33.68 10.67-75.22 10.67s-75.22-4.77-75.22-10.66" stroke="#666" stroke-width="5" fill="none"/><path d="M972.46 493.26V412.77" stroke="#999" stroke-width="5" fill="none"/><path d="M974.96 493.34l-2.5-.08-2.5.05v-.04h5zM977.1 427.04h-9.27l4.63-14.27z" fill="#999"/><path d="M980.54 429.54h-16.16l6.14-18.87h3.9zm-9.27-5h2.4l-1.2-3.68z" fill="#999"/><path d="M628.1 225.55v-95.98c0-2.76-2.24-5-5-5h-43.72c-2.76 0-5-2.24-5-5V23.6" stroke="#999" stroke-width="5" fill="none"/><path d="M628.1 225.55l-4.64-14.27h9.27z" fill="#999"/><path d="M630.72 225.55h-5.25l-5.45-16.77h16.15zm-3.82-11.77l1.2 3.68 1.2-3.68z" fill="#999"/><path d="M732.1 276.03h235.3c2.77 0 5 2.24 5 5v28.66" stroke="#999" stroke-width="5" fill="none"/><path fill="#999"/><path d="M972.4 309.7l-4.63-14.27h9.27z" fill="#999"/><path d="M975.04 309.7h-5.26l-5.45-16.77h16.15zm-3.83-11.77l1.2 3.67 1.2-3.67z" fill="#999"/><path d="M524.1 276.03H289c-2.76 0-5 2.24-5 5v28.66" stroke="#999" stroke-width="5" fill="none"/><path fill="#999"/><path d="M284 309.7l-4.64-14.27h9.27z" fill="#999"/><path d="M286.63 309.7h-5.26l-5.45-16.77h16.16zm-3.82-11.77l1.2 3.67 1.2-3.67z" fill="#999"/><path d="M1066.05 605c0-2.76 2.24-5 5-5h198c2.76 0 5 2.24 5 5v90.98c0 2.76-2.24 5-5 5h-198c-2.76 0-5-2.24-5-5z" stroke="#666" stroke-width="5" fill="#fff"/><use xlink:href="#a" transform="matrix(1,0,0,1,1066.047065467652,600) translate(11.699724422491196 66.58176224239548)"/><path d="M1245.32 879.63c0 5.9-33.68 10.68-75.22 10.68s-75.22-4.77-75.22-10.67v-85.4c0-5.88 33.68-10.66 75.22-10.66s75.22 4.78 75.22 10.67z" stroke="#666" stroke-width="5" fill="#fff"/><path d="M1245.32 794.24c0 5.9-33.68 10.68-75.22 10.68s-75.22-4.78-75.22-10.68" stroke="#666" stroke-width="5" fill="none"/><path d="M1170.1 783.57v-80.5" stroke="#999" stroke-width="5" fill="none"/><path d="M1172.6 783.65l-2.5-.08-2.5.05v-.05h5zM1174.74 717.35h-9.27l4.63-14.27z" fill="#999"/><path d="M1178.18 719.85h-16.16l6.14-18.87h3.9zm-9.27-5h2.4l-1.2-3.68z" fill="#999"/><path d="M670.88 603.45c0-2.76 2.23-5 5-5h198c2.76 0 5 2.24 5 5v90.97c0 2.76-2.24 5-5 5h-198c-2.77 0-5-2.24-5-5z" stroke="#666" stroke-width="5" fill="#fff"/><use xlink:href="#a" transform="matrix(1,0,0,1,670.8758127055788,598.4469225879421) translate(11.699724422491196 66.58176224239548)"/><path d="M850.15 878.08c0 5.9-33.68 10.67-75.22 10.67s-75.22-4.77-75.22-10.67v-85.4c0-5.88 33.7-10.66 75.23-10.66 41.54 0 75.22 4.78 75.22 10.67z" stroke="#666" stroke-width="5" fill="#fff"/><path d="M850.15 792.7c0 5.9-33.68 10.66-75.22 10.66s-75.22-4.77-75.22-10.67" stroke="#666" stroke-width="5" fill="none"/><path d="M774.93 782.02v-80.5" stroke="#999" stroke-width="5" fill="none"/><path d="M777.43 782.1l-2.5-.08-2.5.05v-.05h5zM779.56 715.8h-9.27l4.63-14.27z" fill="#999"/><path d="M783 718.3h-16.15l6.13-18.88h3.9zm-9.26-5h2.38l-1.2-3.68z" fill="#999"/><path d="M420 603c0-2.76 2.24-5 5-5h198c2.76 0 5 2.24 5 5v90.98c0 2.76-2.24 5-5 5H425c-2.76 0-5-2.24-5-5z" stroke="#666" stroke-width="5" fill="#fff"/><use xlink:href="#a" transform="matrix(1,0,0,1,420.00000000000006,598) translate(11.699724422491196 66.58176224239548)"/><path d="M599.27 877.63c0 5.9-33.68 10.68-75.22 10.68s-75.2-4.77-75.2-10.67v-85.4c0-5.88 33.66-10.66 75.2-10.66 41.54 0 75.22 4.78 75.22 10.67z" stroke="#666" stroke-width="5" fill="#fff"/><path d="M599.27 792.24c0 5.9-33.68 10.68-75.22 10.68s-75.2-4.78-75.2-10.68" stroke="#666" stroke-width="5" fill="none"/><path d="M524.05 781.57v-80.5" stroke="#999" stroke-width="5" fill="none"/><path d="M526.55 781.65l-2.5-.08-2.5.05v-.05h5zM528.7 715.35h-9.28l4.63-14.27z" fill="#999"/><path d="M532.13 717.85h-16.15l6.13-18.87h3.9zm-9.27-5h2.4l-1.2-3.68z" fill="#999"/><path d="M40 605c0-2.76 2.24-5 5-5h198c2.76 0 5 2.24 5 5v90.98c0 2.76-2.24 5-5 5H45c-2.76 0-5-2.24-5-5z" stroke="#666" stroke-width="5" fill="#fff"/><use xlink:href="#a" transform="matrix(1,0,0,1,40.00000000000004,600) translate(11.699724422491196 66.58176224239548)"/><path d="M219.27 879.63c0 5.9-33.68 10.68-75.22 10.68s-75.2-4.77-75.2-10.67v-85.4c0-5.88 33.66-10.66 75.2-10.66 41.54 0 75.22 4.78 75.22 10.67z" stroke="#666" stroke-width="5" fill="#fff"/><path d="M219.27 794.24c0 5.9-33.68 10.68-75.22 10.68s-75.2-4.78-75.2-10.68" stroke="#666" stroke-width="5" fill="none"/><path d="M144.05 783.57v-80.5" stroke="#999" stroke-width="5" fill="none"/><path d="M146.55 783.65l-2.5-.08-2.5.05v-.05h5zM148.7 717.35h-9.28l4.63-14.27z" fill="#999"/><path d="M152.13 719.85h-16.15l6.13-18.87h3.9zm-9.27-5h2.4l-1.2-3.68z" fill="#999"/><path d="M180 360.18h-31c-2.76 0-5 2.24-5 5V600" stroke="#999" stroke-width="5" fill="none"/><path fill="#999"/><path d="M144 600l-4.64-14.27h9.27z" fill="#999"/><path d="M146.63 600h-5.26l-5.45-16.77h16.16zm-3.82-11.77l1.2 3.68 1.2-3.67z" fill="#999"/><path d="M388 360.18h131c2.76 0 5 2.24 5 5V598" stroke="#999" stroke-width="5" fill="none"/><path fill="#999"/><path d="M524 598l-4.64-14.27h9.27z" fill="#999"/><path d="M526.63 598h-5.26l-5.45-16.77h16.16zm-3.82-11.77l1.2 3.68 1.2-3.67z" fill="#999"/><path d="M868.4 360.18H779.9c-2.77 0-5 2.24-5 5v233.27" stroke="#999" stroke-width="5" fill="none"/><path fill="#999"/><path d="M774.88 598.45l-4.64-14.27h9.27z" fill="#999"/><path d="M777.5 598.45h-5.25l-5.45-16.77h16.15zm-3.82-11.77l1.2 3.68 1.2-3.68z" fill="#999"/><path d="M1076.4 360.18h88.65c2.76 0 5 2.24 5 5V600" stroke="#999" stroke-width="5" fill="none"/><path fill="#999"/><path d="M1170.05 600l-4.64-14.27h9.28z" fill="#999"/><path d="M1172.68 600h-5.26l-5.45-16.77h16.15zm-3.83-11.77l1.2 3.68 1.2-3.67z" fill="#999"/><defs><path fill="#333" d="M80-683c59-12 137-18 203-18 187 1 322 54 322 228 0 106-52 157-130 190 65 83 124 182 172 283H472c-49-87-99-179-159-253h-77V0H80v-683zm364 209c1-96-110-98-208-91v188c111-1 207 3 208-97" id="b"/><path fill="#333" d="M323 14C144 14 45-83 45-259c0-170 90-275 252-281 176-6 262 133 239 326H198c8 66 67 100 145 100 51 0 111-11 145-26l20 121C460 2 393 14 323 14zm72-330c13-111-157-138-187-38-4 12-8 25-10 38h197" id="c"/><path fill="#333" d="M273 12C125 12 65-67 65-215v-442l149-24v155h179v124H214v185c2 63 16 104 83 103 34 0 71-7 96-17l21 116c-41 16-81 27-141 27" id="d"/><path fill="#333" d="M70-498c86-33 237-58 342-19l-25 123c-45-13-116-24-168-8V0H70v-498" id="e"/><path fill="#333" d="M219 0H70v-526h149V0zm-75-766c49 0 89 36 89 88s-40 88-89 88-89-36-89-88 40-88 89-88" id="f"/><path fill="#333" d="M540-526C484-337 414-152 337 0H213C136-152 65-338 10-526h158c31 116 69 239 109 347 39-108 78-231 109-347h154" id="g"/><g id="a"><use transform="matrix(0.04096085004548871,0,0,0.04096085004548871,0,0)" xlink:href="#b"/><use transform="matrix(0.04096085004548871,0,0,0.04096085004548871,26.296865729203752,0)" xlink:href="#c"/><use transform="matrix(0.04096085004548871,0,0,0.04096085004548871,50.218002155769156,0)" xlink:href="#d"/><use transform="matrix(0.04096085004548871,0,0,0.04096085004548871,68.40461957596614,0)" xlink:href="#e"/><use transform="matrix(0.04096085004548871,0,0,0.04096085004548871,85.69009829516236,0)" xlink:href="#f"/><use transform="matrix(0.04096085004548871,0,0,0.04096085004548871,97.5277839583086,0)" xlink:href="#c"/><use transform="matrix(0.04096085004548871,0,0,0.04096085004548871,121.448920384874,0)" xlink:href="#g"/><use transform="matrix(0.04096085004548871,0,0,0.04096085004548871,143.40393600925597,0)" xlink:href="#c"/><use transform="matrix(0.04096085004548871,0,0,0.04096085004548871,167.32507243582137,0)" xlink:href="#e"/></g></defs></g></svg>