<svg xmlns="http://www.w3.org/2000/svg" xmlns:xlink="http://www.w3.org/1999/xlink" xmlns:lucid="lucid" width="1297.64" height="766.79"><g transform="translate(0 0)" lucid:page-tab-id="X.eBqHZwiE~A"><path d="M0 0h1297.64v766.8H0z" fill="#fff"/><path d="M23.6 368.6c0-2.77 2.23-5 5-5h280.14c2.77 0 5 2.23 5 5v110c0 2.75-2.23 5-5 5H28.6c-2.77 0-5-2.25-5-5z" stroke="#666" stroke-width="5" fill="#fff"/><use xlink:href="#a" transform="matrix(1,0,0,1,23.593449626201505,363.59344962620145) translate(15.972046645702315 79.61530398322853)"/><path d="M273.67 695.9c0 7-46.98 12.7-104.93 12.7-57.94 0-104.92-5.7-104.92-12.7V594.44c0-7 46.98-12.68 104.92-12.68 57.95 0 104.93 5.68 104.93 12.68z" stroke="#666" stroke-width="5" fill="#fff"/><path d="M273.67 594.43c0 7-46.98 12.7-104.93 12.7-57.94 0-104.92-5.7-104.92-12.7" stroke="#666" stroke-width="5" fill="none"/><path d="M168.67 483.6v48.57h.07v48.58" stroke="#999" stroke-width="5" fill="none"/><path d="M173.3 497.86h-9.27l4.64-14.27z" fill="#999"/><path d="M176.75 500.36H160.6l5.44-16.77h5.26zm-9.28-5h2.4l-1.2-3.68zM171.24 581.8l-2.5-.05-2.5.05v-1.05h5z" fill="#999"/><path d="M503.6 268.6c0-2.77 2.23-5 5-5h280.14c2.77 0 5 2.23 5 5v110c0 2.75-2.23 5-5 5H508.6c-2.77 0-5-2.25-5-5z" stroke="#666" stroke-width="5" fill="#fff"/><use xlink:href="#a" transform="matrix(1,0,0,1,503.5934496262015,263.5934496262015) translate(15.972046645702315 79.61530398322853)"/><path d="M753.67 595.9c0 7-46.98 12.7-104.93 12.7-57.94 0-104.92-5.7-104.92-12.7V494.44c0-7 46.98-12.68 104.92-12.68 57.95 0 104.93 5.68 104.93 12.68z" stroke="#666" stroke-width="5" fill="#fff"/><path d="M753.67 494.43c0 7-46.98 12.7-104.93 12.7-57.94 0-104.92-5.7-104.92-12.7" stroke="#666" stroke-width="5" fill="none"/><path d="M648.67 383.6v48.57h.07v48.58" stroke="#999" stroke-width="5" fill="none"/><path d="M653.3 397.86h-9.27l4.64-14.27z" fill="#999"/><path d="M656.75 400.36H640.6l5.44-16.77h5.26zm-9.28-5h2.4l-1.2-3.68zM651.24 481.8l-2.5-.05-2.5.05v-1.05h5z" fill="#999"/><path d="M983.9 368.6c0-2.77 2.23-5 5-5h280.15c2.76 0 5 2.23 5 5v110c0 2.75-2.24 5-5 5H988.9c-2.77 0-5-2.25-5-5z" stroke="#666" stroke-width="5" fill="#fff"/><use xlink:href="#a" transform="matrix(1,0,0,1,983.8953364186546,363.59344962620145) translate(15.972046645702315 79.61530398322853)"/><path d="M1233.97 695.9c0 7-46.98 12.7-104.92 12.7-57.95 0-104.93-5.7-104.93-12.7V594.44c0-7 46.98-12.68 104.93-12.68 57.94 0 104.92 5.68 104.92 12.68z" stroke="#666" stroke-width="5" fill="#fff"/><path d="M1233.97 594.43c0 7-46.98 12.7-104.92 12.7-57.95 0-104.93-5.7-104.93-12.7" stroke="#666" stroke-width="5" fill="none"/><path d="M1129.05 581.75V486.1" stroke="#999" stroke-width="5" fill="none"/><path d="M1131.55 581.8l-2.5-.05-2.5.05v-.05h5zM1133.68 500.36h-9.27l4.65-14.27z" fill="#999"/><path d="M1137.12 502.86h-16.15l6.26-19.27h3.63zm-9.27-5h2.4l-1.2-3.68z" fill="#999"/><path d="M648.67 263.6v-115c0-2.77-2.24-5-5-5h-64.93c-2.76 0-5-2.25-5-5v-115" stroke="#999" stroke-width="5" fill="none"/><path d="M648.67 263.6l-4.64-14.27h9.27z" fill="#999"/><path d="M651.3 263.6h-5.26l-5.45-16.77h16.15zm-3.83-11.77l1.2 3.67 1.2-3.67z" fill="#999"/><path d="M793.74 323.6h330.23c2.76 0 5 2.23 5 5v35" stroke="#999" stroke-width="5" fill="none"/><path fill="#999"/><path d="M1128.97 363.6l-4.63-14.27h9.27z" fill="#999"/><path d="M1131.6 363.6h-5.26l-5.45-16.77h16.15zm-3.82-11.77l1.2 3.67 1.2-3.67z" fill="#999"/><path d="M503.6 323.6H173.66c-2.76 0-5 2.23-5 5v35" stroke="#999" stroke-width="5" fill="none"/><path fill="#999"/><path d="M168.67 363.6l-4.64-14.27h9.27z" fill="#999"/><path d="M171.3 363.6h-5.26l-5.45-16.77h16.15zm-3.83-11.77l1.2 3.67 1.2-3.67z" fill="#999"/><defs><path fill="#333" d="M80-683c59-12 137-18 203-18 187 1 322 54 322 228 0 106-52 157-130 190 65 83 124 182 172 283H472c-49-87-99-179-159-253h-77V0H80v-683zm364 209c1-96-110-98-208-91v188c111-1 207 3 208-97" id="b"/><path fill="#333" d="M323 14C144 14 45-83 45-259c0-170 90-275 252-281 176-6 262 133 239 326H198c8 66 67 100 145 100 51 0 111-11 145-26l20 121C460 2 393 14 323 14zm72-330c13-111-157-138-187-38-4 12-8 25-10 38h197" id="c"/><path fill="#333" d="M273 12C125 12 65-67 65-215v-442l149-24v155h179v124H214v185c2 63 16 104 83 103 34 0 71-7 96-17l21 116c-41 16-81 27-141 27" id="d"/><path fill="#333" d="M70-498c86-33 237-58 342-19l-25 123c-45-13-116-24-168-8V0H70v-498" id="e"/><path fill="#333" d="M219 0H70v-526h149V0zm-75-766c49 0 89 36 89 88s-40 88-89 88-89-36-89-88 40-88 89-88" id="f"/><path fill="#333" d="M540-526C484-337 414-152 337 0H213C136-152 65-338 10-526h158c31 116 69 239 109 347 39-108 78-231 109-347h154" id="g"/><g id="a"><use transform="matrix(0.05725890985324948,0,0,0.05725890985324948,0,0)" xlink:href="#b"/><use transform="matrix(0.05725890985324948,0,0,0.05725890985324948,36.76022012578617,0)" xlink:href="#c"/><use transform="matrix(0.05725890985324948,0,0,0.05725890985324948,70.19942348008387,0)" xlink:href="#d"/><use transform="matrix(0.05725890985324948,0,0,0.05725890985324948,95.62237945492663,0)" xlink:href="#e"/><use transform="matrix(0.05725890985324948,0,0,0.05725890985324948,119.78563941299791,0)" xlink:href="#f"/><use transform="matrix(0.05725890985324948,0,0,0.05725890985324948,136.33346436058702,0)" xlink:href="#c"/><use transform="matrix(0.05725890985324948,0,0,0.05725890985324948,169.7726677148847,0)" xlink:href="#g"/><use transform="matrix(0.05725890985324948,0,0,0.05725890985324948,200.4634433962264,0)" xlink:href="#c"/><use transform="matrix(0.05725890985324948,0,0,0.05725890985324948,233.9026467505241,0)" xlink:href="#e"/></g></defs></g></svg>