<svg xmlns="http://www.w3.org/2000/svg" xmlns:xlink="http://www.w3.org/1999/xlink" xmlns:lucid="lucid" width="1511.64" height="1168.08"><g transform="translate(0 0)" lucid:page-tab-id="1eeBmjvc5Q-Y"><path d="M0 0h1511.64v1168.08H0z" fill="#fff"/><path d="M1430 240c16.57 0 30 13.43 30 30v781.48c0 16.57-13.43 30-30 30H110c-16.57 0-30-13.43-30-30V270c0-16.57 13.43-30 30-30z" stroke="#666" stroke-width="5" fill="none"/><path d="M689.85 65c0-2.76 2.24-5 5-5h370c2.76 0 5 2.24 5 5v110c0 2.76-2.24 5-5 5h-370c-2.76 0-5-2.24-5-5z" stroke="#666" stroke-width="5" fill="#fff"/><use xlink:href="#a" transform="matrix(1,0,0,1,689.8490566037735,60) translate(58.08047169811321 79.61530398322853)"/><path d="M665.85 340h-455c-2.76 0-5 2.24-5 5v90c0 2.76 2.24 5 5 5h455" stroke="#666" stroke-width="5" fill="#fff"/><path d="M297.85 340v100" stroke="#666" stroke-width="5" fill="none"/><path d="M205.85 345c0-2.76 2.24-5 5-5h450c2.76 0 5 2.24 5 5v90c0 2.76-2.24 5-5 5h-450c-2.76 0-5-2.24-5-5z" fill="none"/><use xlink:href="#b" transform="matrix(1,0,0,1,320.84905660377353,360) translate(81.66778039832285 53.36530398322852)"/><path d="M1345.85 340h-455c-2.76 0-5 2.24-5 5v90c0 2.76 2.24 5 5 5h455" stroke="#666" stroke-width="5" fill="#fff"/><path d="M977.85 340v100" stroke="#666" stroke-width="5" fill="none"/><path d="M885.85 345c0-2.76 2.24-5 5-5h450c2.76 0 5 2.24 5 5v90c0 2.76-2.24 5-5 5h-450c-2.76 0-5-2.24-5-5z" fill="none"/><use xlink:href="#b" transform="matrix(1,0,0,1,1000.8490566037735,360) translate(81.66778039832285 53.36530398322852)"/><path d="M129.85 645c0-2.76 2.24-5 5-5H415c2.76 0 5 2.24 5 5v110c0 2.76-2.24 5-5 5H134.85c-2.76 0-5-2.24-5-5z" stroke="#666" stroke-width="5" fill="#fff"/><use xlink:href="#c" transform="matrix(1,0,0,1,129.84905660377353,640) translate(15.972046645702315 79.61530398322853)"/><path d="M379.92 972.32c0 7-46.97 12.68-104.92 12.68s-104.92-5.68-104.92-12.68V870.84c0-7 46.97-12.7 104.92-12.7s104.92 5.7 104.92 12.7z" stroke="#666" stroke-width="5" fill="#fff"/><path d="M379.92 870.84c0 7-46.97 12.68-104.92 12.68s-104.92-5.68-104.92-12.68" stroke="#666" stroke-width="5" fill="none"/><path d="M274.92 760v48.58h.08v48.57" stroke="#999" stroke-width="5" fill="none"/><path fill="#999"/><path d="M275 857.15l-4.64-14.26h9.28z" fill="#999"/><path d="M277.3 858.2l-2.3-.05-2.3.05-5.78-17.8h16.16zm-3.5-12.8l1.2 3.66 1.2-3.67z" fill="#999"/><path d="M435.85 440v99.4h-115.7v99.38" stroke="#999" stroke-width="5" fill="none"/><path d="M438.35 440h-5v-3h5zM320.14 638.78l-4.64-14.26h9.27z" fill="#999"/><path d="M322.37 640h-4.46l-5.84-17.98h16.16zm-3.43-12.98l1.2 3.67 1.2-3.68z" fill="#999"/><path d="M1115.85 440v100H945.08v100" stroke="#999" stroke-width="5" fill="none"/><path d="M1118.35 440h-5v-3h5zM945.08 640l-4.64-14.27h9.27z" fill="#999"/><path d="M947.7 640h-5.25L937 623.23h16.15zm-3.82-11.77l1.2 3.68 1.2-3.67z" fill="#999"/><path d="M435.85 440v100h169.23v140" stroke="#999" stroke-width="5" fill="none"/><path d="M438.35 440h-5v-3h5zM605.08 680l-4.64-14.27h9.27z" fill="#999"/><path d="M607.7 680h-5.25L597 663.23h16.15zm-3.82-11.77l1.2 3.68 1.2-3.67z" fill="#999"/><path d="M1115.85 440v100h159.38v140" stroke="#999" stroke-width="5" fill="none"/><path d="M1118.35 440h-5v-3h5zM1275.23 680l-4.64-14.27h9.26z" fill="#999"/><path d="M1277.86 680h-5.26l-5.45-16.77h16.15zm-3.83-11.77l1.2 3.68 1.2-3.67z" fill="#999"/><path d="M879.85 180v125c0 2.76-2.24 5-5 5h-611.5c-2.77 0-5 2.24-5 5v23.14" stroke="#999" stroke-width="5" fill="none"/><path fill="#999"/><path d="M258.34 338.14l-4.64-14.27h9.27z" fill="#999"/><path d="M258.34 346.23l-2.02-6.23h4.04zm2.02-6.23h-4.04l-6.06-18.63h16.15zm-3.22-13.63l1.2 3.68 1.2-3.68z" fill="#999"/><path d="M879.85 180v125c0 2.76 2.24 5 5 5h39.92c2.76 0 5 2.24 5 5v23.14" stroke="#999" stroke-width="5" fill="none"/><path fill="#999"/><path d="M929.77 338.14l-4.64-14.27h9.27z" fill="#999"/><path d="M929.77 346.23l-2.03-6.23h4.05zm2.02-6.23h-4.06l-6.05-18.63h16.14zm-3.23-13.63l1.2 3.68 1.2-3.68z" fill="#999"/><path d="M460 685c0-2.76 2.24-5 5-5h280.15c2.76 0 5 2.24 5 5v110c0 2.76-2.24 5-5 5H465c-2.76 0-5-2.24-5-5z" stroke="#666" stroke-width="5" fill="#fff"/><use xlink:href="#c" transform="matrix(1,0,0,1,460,680) translate(15.972046645702315 79.61530398322853)"/><path d="M710.08 1012.32c0 7-46.98 12.68-104.93 12.68-57.95 0-104.92-5.68-104.92-12.68V910.84c0-7 46.97-12.7 104.92-12.7s104.93 5.7 104.93 12.7z" stroke="#666" stroke-width="5" fill="#fff"/><path d="M710.08 910.84c0 7-46.98 12.68-104.93 12.68-57.95 0-104.92-5.68-104.92-12.68" stroke="#666" stroke-width="5" fill="none"/><path d="M605.08 800v48.58h.07v48.57" stroke="#999" stroke-width="5" fill="none"/><path fill="#999"/><path d="M605.15 897.15l-4.63-14.26h9.27z" fill="#999"/><path d="M607.44 898.2l-2.3-.05-2.28.05-5.8-17.8h16.17zm-3.48-12.8l1.2 3.66 1.2-3.67z" fill="#999"/><path d="M800 645c0-2.76 2.24-5 5-5h280.15c2.76 0 5 2.24 5 5v110c0 2.76-2.24 5-5 5H805c-2.76 0-5-2.24-5-5z" stroke="#666" stroke-width="5" fill="#fff"/><use xlink:href="#c" transform="matrix(1,0,0,1,800,640) translate(15.972046645702315 79.61530398322853)"/><path d="M1050.08 972.32c0 7-46.98 12.68-104.93 12.68-57.95 0-104.92-5.68-104.92-12.68V870.84c0-7 46.97-12.7 104.92-12.7s104.93 5.7 104.93 12.7z" stroke="#666" stroke-width="5" fill="#fff"/><path d="M1050.08 870.84c0 7-46.98 12.68-104.93 12.68-57.95 0-104.92-5.68-104.92-12.68" stroke="#666" stroke-width="5" fill="none"/><path d="M945.08 760v48.58h.07v48.57" stroke="#999" stroke-width="5" fill="none"/><path fill="#999"/><path d="M945.15 857.15l-4.63-14.26h9.27z" fill="#999"/><path d="M947.44 858.2l-2.3-.05-2.28.05-5.8-17.8h16.17zm-3.48-12.8l1.2 3.66 1.2-3.67z" fill="#999"/><path d="M1130.15 685c0-2.76 2.24-5 5-5h280.15c2.76 0 5 2.24 5 5v110c0 2.76-2.24 5-5 5h-280.15c-2.76 0-5-2.24-5-5z" stroke="#666" stroke-width="5" fill="#fff"/><use xlink:href="#c" transform="matrix(1,0,0,1,1130.1509433962265,680) translate(15.972046645702315 79.61530398322853)"/><path d="M1380.23 1012.32c0 7-46.98 12.68-104.93 12.68-57.95 0-104.92-5.68-104.92-12.68V910.84c0-7 46.97-12.7 104.92-12.7s104.93 5.7 104.93 12.7z" stroke="#666" stroke-width="5" fill="#fff"/><path d="M1380.23 910.84c0 7-46.98 12.68-104.93 12.68-57.95 0-104.92-5.68-104.92-12.68" stroke="#666" stroke-width="5" fill="none"/><path d="M1275.23 800v48.58h.07v48.57" stroke="#999" stroke-width="5" fill="none"/><path fill="#999"/><path d="M1275.3 897.15l-4.63-14.26h9.27z" fill="#999"/><path d="M1277.6 898.2l-2.3-.05-2.3.05-5.77-17.8h16.15zm-3.5-12.8l1.2 3.66 1.2-3.67z" fill="#999"/><defs><path fill="#333" d="M628-38C575-8 488 14 396 14 170 14 50-120 50-347c0-295 267-433 542-323 12 5 21 11 26 14l-45 126c-44-23-101-43-171-41-128 4-190 86-190 221 0 139 59 224 198 226 72 0 128-15 175-39" id="d"/><path fill="#333" d="M304-115c21 0 48-2 66-5v-406h149v508C462-2 373 12 295 12 133 12 65-74 65-233v-293h149v275c2 86 11 133 90 136" id="e"/><path fill="#333" d="M64-139c45 18 98 32 157 32 46 0 72-1 75-39-14-53-105-62-152-89-51-30-89-66-91-145-5-167 225-188 368-133l-26 116c-36-12-75-23-125-23-84 0-86 59-30 82 96 39 207 59 204 194-2 116-97 158-224 158C148 14 81-2 39-18" id="f"/><path fill="#333" d="M273 12C125 12 65-67 65-215v-442l149-24v155h179v124H214v185c2 63 16 104 83 103 34 0 71-7 96-17l21 116c-41 16-81 27-141 27" id="g"/><path fill="#333" d="M304-540c166 0 258 108 258 276 0 170-90 278-258 278S45-95 45-264c0-168 94-276 259-276zm0 426c75 0 106-68 106-150s-31-148-106-148-107 66-107 148 32 150 107 150" id="h"/><path fill="#333" d="M497-390c22 111 6 261 11 390H359v-279c-2-83-10-128-82-132-19 0-40 3-58 5V0H70v-508c63-16 136-29 216-30 70-1 115 20 151 49 35-26 95-48 150-49 154-2 210 88 210 241V0H648v-279c4-96-28-148-116-126-14 4-26 9-35 15" id="i"/><path fill="#333" d="M323 14C144 14 45-83 45-259c0-170 90-275 252-281 176-6 262 133 239 326H198c8 66 67 100 145 100 51 0 111-11 145-26l20 121C460 2 393 14 323 14zm72-330c13-111-157-138-187-38-4 12-8 25-10 38h197" id="j"/><path fill="#333" d="M70-498c86-33 237-58 342-19l-25 123c-45-13-116-24-168-8V0H70v-498" id="k"/><g id="a"><use transform="matrix(0.05725890985324948,0,0,0.05725890985324948,0,0)" xlink:href="#d"/><use transform="matrix(0.05725890985324948,0,0,0.05725890985324948,36.359407756813425,0)" xlink:href="#e"/><use transform="matrix(0.05725890985324948,0,0,0.05725890985324948,70.08490566037737,0)" xlink:href="#f"/><use transform="matrix(0.05725890985324948,0,0,0.05725890985324948,97.85547693920337,0)" xlink:href="#g"/><use transform="matrix(0.05725890985324948,0,0,0.05725890985324948,122.13325471698114,0)" xlink:href="#h"/><use transform="matrix(0.05725890985324948,0,0,0.05725890985324948,156.88941299790358,0)" xlink:href="#i"/><use transform="matrix(0.05725890985324948,0,0,0.05725890985324948,206.24659329140462,0)" xlink:href="#j"/><use transform="matrix(0.05725890985324948,0,0,0.05725890985324948,239.68579664570234,0)" xlink:href="#k"/></g><path fill="#333" d="M658-693c-96 114-188 214-293 319C485-274 586-142 674 0H489c-68-108-155-214-253-293V0H80v-693h156v262c77-80 164-181 237-262h185" id="l"/><path fill="#333" d="M183-166c-2 75 96 63 162 58v-113c-63-10-160-16-162 55zm-148 4c-1-153 163-182 310-156 2-69-30-99-103-98-49 0-104 8-139 21L84-515c50-14 111-24 175-25 152-2 229 65 229 215v310C426-2 349 12 261 11 129 9 36-30 35-162" id="m"/><path fill="#333" d="M70-554C56-744 252-822 429-751l-29 119c-23-11-56-18-87-18-75-1-100 46-94 124h184v124H219V0H70v-554" id="n"/><path fill="#333" d="M562-526c-73 84-134 153-214 231 85 81 163 187 221 295H398c-51-81-107-170-179-230V0H70v-752l149-24v440c56-60 114-127 166-190h177" id="o"/><g id="b"><use transform="matrix(0.05725890985324948,0,0,0.05725890985324948,0,0)" xlink:href="#l"/><use transform="matrix(0.05725890985324948,0,0,0.05725890985324948,38.59250524109015,0)" xlink:href="#m"/><use transform="matrix(0.05725890985324948,0,0,0.05725890985324948,70.25668238993711,0)" xlink:href="#n"/><use transform="matrix(0.05725890985324948,0,0,0.05725890985324948,94.41994234800839,0)" xlink:href="#o"/><use transform="matrix(0.05725890985324948,0,0,0.05725890985324948,127.00026205450735,0)" xlink:href="#m"/></g><path fill="#333" d="M80-683c59-12 137-18 203-18 187 1 322 54 322 228 0 106-52 157-130 190 65 83 124 182 172 283H472c-49-87-99-179-159-253h-77V0H80v-683zm364 209c1-96-110-98-208-91v188c111-1 207 3 208-97" id="p"/><path fill="#333" d="M219 0H70v-526h149V0zm-75-766c49 0 89 36 89 88s-40 88-89 88-89-36-89-88 40-88 89-88" id="q"/><path fill="#333" d="M540-526C484-337 414-152 337 0H213C136-152 65-338 10-526h158c31 116 69 239 109 347 39-108 78-231 109-347h154" id="r"/><g id="c"><use transform="matrix(0.05725890985324948,0,0,0.05725890985324948,0,0)" xlink:href="#p"/><use transform="matrix(0.05725890985324948,0,0,0.05725890985324948,36.76022012578617,0)" xlink:href="#j"/><use transform="matrix(0.05725890985324948,0,0,0.05725890985324948,70.19942348008387,0)" xlink:href="#g"/><use transform="matrix(0.05725890985324948,0,0,0.05725890985324948,95.62237945492663,0)" xlink:href="#k"/><use transform="matrix(0.05725890985324948,0,0,0.05725890985324948,119.78563941299791,0)" xlink:href="#q"/><use transform="matrix(0.05725890985324948,0,0,0.05725890985324948,136.33346436058702,0)" xlink:href="#j"/><use transform="matrix(0.05725890985324948,0,0,0.05725890985324948,169.7726677148847,0)" xlink:href="#r"/><use transform="matrix(0.05725890985324948,0,0,0.05725890985324948,200.4634433962264,0)" xlink:href="#j"/><use transform="matrix(0.05725890985324948,0,0,0.05725890985324948,233.9026467505241,0)" xlink:href="#k"/></g></defs></g></svg>