<svg xmlns="http://www.w3.org/2000/svg" xmlns:xlink="http://www.w3.org/1999/xlink" width="1511.64" height="1168.08"><g transform="translate(0 0)"><path d="M0 0h1511.64v1168.08H0z" fill="#fff"/><path d="M28.15 32.48c0-2.76 2.24-5 5-5h838c2.76 0 5 2.24 5 5v38c0 2.77-2.24 5-5 5h-838c-2.76 0-5-2.23-5-5z" fill="none"/><use xlink:href="#a" transform="matrix(1,0,0,1,28.150943396226467,27.484276729559753) translate(0 31.11111111111111)"/><use xlink:href="#b" transform="matrix(1,0,0,1,28.150943396226467,27.484276729559753) translate(212.93827160493828 31.11111111111111)"/><use xlink:href="#c" transform="matrix(1,0,0,1,28.150943396226467,27.484276729559753) translate(234.5679012345679 31.11111111111111)"/><use xlink:href="#d" transform="matrix(1,0,0,1,28.150943396226467,27.484276729559753) translate(358.71604938271605 31.11111111111111)"/><path d="M27.48 75.48l1455.7-2.04" stroke="#999" stroke-width="2" fill="none"/><path d="M1483.2 73.44l-.02-1h.33z" fill="#999"/><path d="M796.15 32.48c0-2.76 2.24-5 5-5h678c2.76 0 5 2.24 5 5v38c0 2.77-2.24 5-5 5h-678c-2.76 0-5-2.23-5-5z" fill="none"/><use xlink:href="#e" transform="matrix(1,0,0,1,796.1509433962265,27.484276729559753) translate(363.8024691358057 28.4444444444444)"/><use xlink:href="#f" transform="matrix(1,0,0,1,796.1509433962265,27.484276729559753) translate(415.59259259259534 28.4444444444444)"/><use xlink:href="#g" transform="matrix(1,0,0,1,796.1509433962265,27.484276729559753) translate(502.01234567901423 28.4444444444444)"/><use xlink:href="#h" transform="matrix(1,0,0,1,796.1509433962265,27.484276729559753) translate(526.2716049382732 28.4444444444444)"/><use xlink:href="#i" transform="matrix(1,0,0,1,796.1509433962265,27.484276729559753) translate(601.5802469135812 28.4444444444444)"/><use xlink:href="#j" transform="matrix(1,0,0,1,796.1509433962265,27.484276729559753) translate(638.6172839506178 28.4444444444444)"/><path d="M352.15 147.2c16.57 0 30 13.43 30 30v94.28c0 16.57-13.43 30-30 30h-260c-16.57 0-30-13.43-30-30V177.2c0-16.57 13.43-30 30-30z" stroke="#666" stroke-width="2" fill="none"/><path d="M42.15 126.48c0-2.76 2.24-5 5-5h230c2.76 0 5 2.24 5 5v28.58c0 2.76-2.24 5-5 5h-230c-2.76 0-5-2.24-5-5z" fill="none"/><use xlink:href="#k" transform="matrix(1,0,0,1,42.15094339622651,121.48427672955975) translate(55.14999999999999 23.1)"/><use xlink:href="#l" transform="matrix(1,0,0,1,42.15094339622651,121.48427672955975) translate(143.95 23.1)"/><path d="M1420.15 416.22c16.57 0 30 13.43 30 30v565.26c0 16.57-13.43 30-30 30h-1320c-16.57 0-30-13.43-30-30V446.22c0-16.57 13.43-30 30-30z" stroke="#666" stroke-width="2" fill="none"/><path d="M257.8 386.48c0-2.76 2.24-5 5-5h289.37c2.76 0 5 2.24 5 5v42.1c0 2.77-2.24 5-5 5H262.8c-2.76 0-5-2.23-5-5z" fill="none"/><use xlink:href="#m" transform="matrix(1,0,0,1,257.8017370470201,381.4842767295598) translate(75.675 30.1)"/><use xlink:href="#l" transform="matrix(1,0,0,1,257.8017370470201,381.4842767295598) translate(183.425 30.1)"/><path d="M115.87 468.06c0-2.76 2.23-5 5-5h224.28c2.76 0 5 2.24 5 5v71.54c0 2.76-2.24 5-5 5H120.87c-2.77 0-5-2.24-5-5z" stroke="#666" stroke-width="2" fill="#fff"/><use xlink:href="#n" transform="matrix(1,0,0,1,115.86522911051225,463.06322409798076) translate(102.03 45.15)"/><path d="M162.15 190.77c0-2.76 2.24-5 5-5h110c2.76 0 5 2.24 5 5v67.14c0 2.77-2.24 5-5 5h-110c-2.76 0-5-2.23-5-5z" stroke="#666" stroke-width="2" fill="#fff"/><use xlink:href="#o" transform="matrix(1,0,0,1,162.15094339622652,185.769991015274) translate(18.10499999999999 31.4625)"/><use xlink:href="#p" transform="matrix(1,0,0,1,162.15094339622652,185.769991015274) translate(44.055 53.0625)"/><path d="M222.15 262.9V358c0 2.75 2.24 5 5 5h.86c2.77 0 5 2.23 5 5v95.06" stroke="#999" stroke-width="2" fill="none"/><path d="M233 463.06l-4.63-14.26h9.27z" fill="#999"/><path d="M234.06 463.06h-2.1L227 447.8h12.02zm-4.3-13.26l3.25 10.03 3.27-10.03z" fill="#999"/><use xlink:href="#q" transform="matrix(1,0,0,1,230.15094339622652,332.8101284720571) translate(0.004999999999999005 14.4)"/><path d="M750.15 516.85h-255c-2.76 0-5 2.24-5 5v43.63c0 2.77 2.24 5 5 5h255" stroke="#666" stroke-width="2" fill="#fff"/><path d="M542.15 516.85v53.63" stroke="#666" stroke-width="2" fill="none"/><path d="M490.15 521.85c0-2.76 2.24-5 5-5h250c2.76 0 5 2.24 5 5v43.63c0 2.77-2.24 5-5 5h-250c-2.76 0-5-2.23-5-5z" fill="none"/><use xlink:href="#r" transform="matrix(1,0,0,1,555.1509433962265,527.5790135716651) translate(20.674999999999983 20.1)"/><use xlink:href="#s" transform="matrix(1,0,0,1,555.1509433962265,527.5790135716651) translate(74.57499999999999 20.1)"/><use xlink:href="#t" transform="matrix(1,0,0,1,555.1509433962265,527.5790135716651) translate(151.32500000000002 20.1)"/><path d="M350.15 503.83h65c2.76 0 5 2.24 5 5v29.84c0 2.76 2.24 5 5 5h65" stroke="#999" stroke-width="2" fill="none"/><path d="M490.15 543.67l-14.26 4.63v-9.27z" fill="#999"/><path d="M476.9 546.93l10-3.26-10-3.26zm-2-9.27l15.25 4.96 3.24 1.05-3.25 1.05-15.26 4.96z" fill="#999"/><path d="M1190.15 516.48h-255c-2.76 0-5 2.24-5 5v43.64c0 2.76 2.24 5 5 5h255" stroke="#666" stroke-width="2" fill="#fff"/><path d="M982.15 516.48v53.64" stroke="#666" stroke-width="2" fill="none"/><path d="M930.15 521.48c0-2.76 2.24-5 5-5h250c2.76 0 5 2.24 5 5v43.64c0 2.76-2.24 5-5 5h-250c-2.76 0-5-2.24-5-5z" fill="none"/><use xlink:href="#r" transform="matrix(1,0,0,1,995.1509433962265,527.2105925190334) translate(20.674999999999983 20.1)"/><use xlink:href="#s" transform="matrix(1,0,0,1,995.1509433962265,527.2105925190334) translate(74.57499999999999 20.1)"/><use xlink:href="#u" transform="matrix(1,0,0,1,995.1509433962265,527.2105925190334) translate(151.32500000000002 20.1)"/><path d="M350.15 503.83h65c2.76 0 5-2.24 5-5v-22.38c0-2.77 2.24-5 5-5h360c2.76 0 5 2.23 5 5v61.85c0 2.76 2.24 5 5 5h135" stroke="#999" stroke-width="2" fill="none"/><path d="M930.15 543.3l-14.26 4.64v-9.28z" fill="#999"/><path d="M916.9 546.56l10-3.26-10-3.26zm-2-9.27l15.25 4.95 3.24 1.05-3.25 1.05-15.26 4.96z" fill="#999"/><path d="M136.1 660.32c0-2.76 2.24-5 5-5h244.05c2.76 0 5 2.24 5 5v316.16c0 2.77-2.24 5-5 5H141.1c-2.76 0-5-2.23-5-5z" stroke="#666" stroke-width="2" fill="none"/><path d="M184.84 689.08c0-2.76 2.24-5 5-5h146.62c2.76 0 5 2.24 5 5v88.7c0 2.77-2.24 5-5 5H189.84c-2.76 0-5-2.23-5-5z" stroke="#666" stroke-width="2" fill="#fff"/><use xlink:href="#v" transform="matrix(1,0,0,1,184.83835695085983,684.0771121590168) translate(39.55499999999999 54.61875)"/><path d="M310.15 922.4c0 6.64-26.86 12.02-60 12.02s-60-5.38-60-12.02v-96.13c0-6.63 26.86-12 60-12s60 5.37 60 12z" stroke="#666" stroke-width="2" fill="#fff"/><path d="M310.15 826.27c0 6.64-26.86 12.02-60 12.02s-60-5.4-60-12.03" stroke="#666" stroke-width="2" fill="none"/><use xlink:href="#w" transform="matrix(1,0,0,1,190.15094339622644,843.2882345289281) translate(41.529999999999994 48.9)"/><path d="M263.15 782.78v31" stroke="#999" stroke-width="2" fill="none"/><path d="M263.15 813.77l-4.63-14.26h9.27z" fill="#999"/><path d="M263.87 814.8l-1.45-.06-5.28-16.23h12.02zm-3.98-14.3l3.25 10.04 3.26-10.03z" fill="#999"/><path d="M813.12 660.32c0-2.76 2.24-5 5-5h244.06c2.76 0 5 2.24 5 5v316.16c0 2.77-2.24 5-5 5H818.12c-2.76 0-5-2.23-5-5z" stroke="#666" stroke-width="2" fill="none"/><path d="M861.86 689.08c0-2.76 2.24-5 5-5h146.63c2.75 0 5 2.24 5 5v88.7c0 2.77-2.25 5-5 5H866.85c-2.76 0-5-2.23-5-5z" stroke="#666" stroke-width="2" fill="#fff"/><use xlink:href="#v" transform="matrix(1,0,0,1,861.8646363422845,684.0771121590168) translate(39.55499999999999 54.61875)"/><path d="M987.18 922.4c0 6.64-26.87 12.02-60 12.02-33.14 0-60-5.38-60-12.02v-96.13c0-6.63 26.86-12 60-12 33.13 0 60 5.37 60 12z" stroke="#666" stroke-width="2" fill="#fff"/><path d="M987.18 826.27c0 6.64-26.87 12.02-60 12.02-33.14 0-60-5.4-60-12.03" stroke="#666" stroke-width="2" fill="none"/><use xlink:href="#w" transform="matrix(1,0,0,1,867.1772227876511,843.2882345289281) translate(41.529999999999994 48.9)"/><path d="M940.18 782.78v31" stroke="#999" stroke-width="2" fill="none"/><path d="M940.18 813.77l-4.64-14.26h9.27z" fill="#999"/><path d="M940.9 814.8l-1.46-.06-5.27-16.23h12.02zm-3.98-14.3l3.26 10.04 3.26-10.03z" fill="#999"/><path d="M620.15 570.48v51.3c0 2.76-2.24 5-5 5h-322.6c-2.75 0-5 2.24-5 5v51.3" stroke="#999" stroke-width="2" fill="none"/><path d="M621.15 570.48h-2v-3h2zM287.56 683.08l-4.64-14.27h9.27z" fill="#999"/><path d="M288.28 684.08h-1.45l-5.28-16.27h12.02zm-3.98-14.27l3.26 10.04 3.26-10.03z" fill="#999"/><path d="M1060.15 570.12v51.48c0 2.76-2.24 5-5 5h-69.98c-2.76 0-5 2.24-5 5v51.48" stroke="#999" stroke-width="2" fill="none"/><path d="M1061.15 570.12h-2v-3h2zM980.17 683.08l-4.63-14.27h9.27z" fill="#999"/><path d="M980.9 684.08h-1.45l-5.3-16.27h12.03zm-4-14.27l3.27 10.04 3.26-10.03z" fill="#999"/><path d="M1130.15 660.32c0-2.76 2.24-5 5-5h244.05c2.76 0 5 2.24 5 5v316.16c0 2.77-2.24 5-5 5h-244.05c-2.76 0-5-2.23-5-5z" stroke="#666" stroke-width="2" fill="none"/><path d="M1178.9 689.08c0-2.76 2.23-5 5-5h146.62c2.76 0 5 2.24 5 5v88.7c0 2.77-2.24 5-5 5H1183.9c-2.77 0-5-2.23-5-5z" stroke="#666" stroke-width="2" fill="#fff"/><use xlink:href="#v" transform="matrix(1,0,0,1,1178.890915733709,684.0771121590168) translate(39.55499999999999 54.61875)"/><path d="M1304.2 922.4c0 6.64-26.86 12.02-60 12.02-33.13 0-60-5.38-60-12.02v-96.13c0-6.63 26.87-12 60-12 33.14 0 60 5.37 60 12z" stroke="#666" stroke-width="2" fill="#fff"/><path d="M1304.2 826.27c0 6.64-26.86 12.02-60 12.02-33.13 0-60-5.4-60-12.03" stroke="#666" stroke-width="2" fill="none"/><use xlink:href="#w" transform="matrix(1,0,0,1,1184.2035021790757,843.2882345289281) translate(41.529999999999994 48.9)"/><path d="M1257.2 782.78v31" stroke="#999" stroke-width="2" fill="none"/><path d="M1257.2 813.77l-4.63-14.26h9.27z" fill="#999"/><path d="M1257.92 814.8l-1.45-.06-5.28-16.23h12.02zm-3.98-14.3l3.26 10.04 3.26-10.03z" fill="#999"/><path d="M450.15 660.9c0-2.77 2.24-5 5-5H699.2c2.76 0 5 2.23 5 5v316.15c0 2.76-2.24 5-5 5H455.15c-2.76 0-5-2.24-5-5z" stroke="#666" stroke-width="2" fill="none"/><path d="M498.9 689.65c0-2.77 2.23-5 5-5H650.5c2.76 0 5 2.23 5 5v88.7c0 2.76-2.24 5-5 5H503.9c-2.77 0-5-2.24-5-5z" stroke="#666" stroke-width="2" fill="#fff"/><use xlink:href="#v" transform="matrix(1,0,0,1,498.8909157337091,684.6450921315983) translate(39.55499999999999 54.61875)"/><path d="M624.2 922.97c0 6.64-26.86 12.02-60 12.02-33.13 0-60-5.4-60-12.03v-96.13c0-6.64 26.87-12.02 60-12.02 33.14 0 60 5.38 60 12.02z" stroke="#666" stroke-width="2" fill="#fff"/><path d="M624.2 826.84c0 6.64-26.86 12.02-60 12.02-33.13 0-60-5.38-60-12.02" stroke="#666" stroke-width="2" fill="none"/><g><use xlink:href="#w" transform="matrix(1,0,0,1,504.2035021790757,843.8562145015096) translate(41.529999999999994 48.9)"/></g><path d="M577.2 783.35v31" stroke="#999" stroke-width="2" fill="none"/><path d="M577.2 814.34l-4.63-14.27h9.27z" fill="#999"/><path d="M577.92 815.37l-1.45-.06-5.28-16.23h12.02zm-3.98-14.3l3.26 10.03 3.26-10.03z" fill="#999"/><path d="M620.15 570.48v52.08c0 2.77-2.24 5-5 5H582.2c-2.76 0-5 2.24-5 5v52.1" stroke="#999" stroke-width="2" fill="none"/><path d="M621.15 570.48h-2v-3h2zM577.2 684.65l-4.63-14.27h9.27z" fill="#999"/><path d="M578.25 684.65h-2.1l-4.96-15.27h12.02zm-4.3-13.27l3.25 10.03 3.26-10.02z" fill="#999"/><path d="M1060.15 570.12v51.98c0 2.76 2.24 5 5 5h187.05c2.76 0 5 2.24 5 5v51.98" stroke="#999" stroke-width="2" fill="none"/><path d="M1061.15 570.12h-2v-3h2zM1257.2 684.08l-4.63-14.27h9.27z" fill="#999"/><path d="M1258.25 684.08h-2.1l-4.96-15.27h12.02zm-4.3-13.27l3.25 10.04 3.26-10.03z" fill="#999"/><defs><path fill="#999" d="M240-174c0 40-23 61-54 70L253 0h-59l-57-94H76V0H24v-248c93 4 217-23 216 74zM76-134c48-2 112 12 112-38 0-48-66-32-112-35v73" id="x"/><path fill="#999" d="M24 0v-248h195v40H76v63h132v40H76v65h150V0H24" id="y"/><path fill="#999" d="M136-208V0H84v-208H4v-40h212v40h-80" id="z"/><path fill="#999" d="M24 0v-248h52V0H24" id="A"/><path fill="#999" d="M147 0H94L2-248h55l64 206c17-72 42-137 63-206h54" id="B"/><g id="a"><use transform="matrix(0.09876543209876544,0,0,0.09876543209876544,0,0)" xlink:href="#x"/><use transform="matrix(0.09876543209876544,0,0,0.09876543209876544,25.58024691358025,0)" xlink:href="#y"/><use transform="matrix(0.09876543209876544,0,0,0.09876543209876544,49.283950617283956,0)" xlink:href="#z"/><use transform="matrix(0.09876543209876544,0,0,0.09876543209876544,70.91358024691358,0)" xlink:href="#x"/><use transform="matrix(0.09876543209876544,0,0,0.09876543209876544,96.49382716049384,0)" xlink:href="#A"/><use transform="matrix(0.09876543209876544,0,0,0.09876543209876544,106.37037037037038,0)" xlink:href="#y"/><use transform="matrix(0.09876543209876544,0,0,0.09876543209876544,130.07407407407408,0)" xlink:href="#B"/><use transform="matrix(0.09876543209876544,0,0,0.09876543209876544,153.77777777777777,0)" xlink:href="#y"/><use transform="matrix(0.09876543209876544,0,0,0.09876543209876544,177.48148148148147,0)" xlink:href="#x"/></g><path fill="#999" d="M14-72v-43h91v43H14" id="C"/><use transform="matrix(0.09876543209876544,0,0,0.09876543209876544,0,0)" xlink:href="#C" id="b"/><path fill="#999" d="M275 0h-61l-44-196L126 0H64L0-248h53L97-49l45-199h58l43 199 44-199h52" id="D"/><g id="c"><use transform="matrix(0.09876543209876544,0,0,0.09876543209876544,0,0)" xlink:href="#D"/><use transform="matrix(0.09876543209876544,0,0,0.09876543209876544,33.48148148148148,0)" xlink:href="#x"/><use transform="matrix(0.09876543209876544,0,0,0.09876543209876544,59.061728395061735,0)" xlink:href="#A"/><use transform="matrix(0.09876543209876544,0,0,0.09876543209876544,68.93827160493828,0)" xlink:href="#z"/><use transform="matrix(0.09876543209876544,0,0,0.09876543209876544,90.56790123456791,0)" xlink:href="#y"/></g><path fill="#999" d="M24-248c93 1 206-16 204 79-1 75-69 88-152 82V0H24v-248zm52 121c47 0 100 7 100-41 0-47-54-39-100-39v80" id="E"/><path fill="#999" d="M199 0l-22-63H83L61 0H9l90-248h61L250 0h-51zm-33-102l-36-108c-10 38-24 72-36 108h72" id="F"/><path fill="#999" d="M186 0v-106H76V0H24v-248h52v99h110v-99h50V0h-50" id="G"/><g id="d"><use transform="matrix(0.09876543209876544,0,0,0.09876543209876544,0,0)" xlink:href="#E"/><use transform="matrix(0.09876543209876544,0,0,0.09876543209876544,21.037037037037038,0)" xlink:href="#F"/><use transform="matrix(0.09876543209876544,0,0,0.09876543209876544,43.95061728395062,0)" xlink:href="#z"/><use transform="matrix(0.09876543209876544,0,0,0.09876543209876544,65.58024691358025,0)" xlink:href="#G"/></g><path fill="#999" d="M185-189c-5-48-123-54-124 2 14 75 158 14 163 119 3 78-121 87-175 55-17-10-28-26-33-46l33-7c5 56 141 63 141-1 0-78-155-14-162-118-5-82 145-84 179-34 5 7 8 16 11 25" id="H"/><path fill="#999" d="M141-36C126-15 110 5 73 4 37 3 15-17 15-53c-1-64 63-63 125-63 3-35-9-54-41-54-24 1-41 7-42 31l-33-3c5-37 33-52 76-52 45 0 72 20 72 64v82c-1 20 7 32 28 27v20c-31 9-61-2-59-35zM48-53c0 20 12 33 32 33 41-3 63-29 60-74-43 2-92-5-92 41" id="I"/><path fill="#999" d="M210-169c-67 3-38 105-44 169h-31v-121c0-29-5-50-35-48C34-165 62-65 56 0H25l-1-190h30c1 10-1 24 2 32 10-44 99-50 107 0 11-21 27-35 58-36 85-2 47 119 55 194h-31v-121c0-29-5-49-35-48" id="J"/><g id="e"><use transform="matrix(0.06172839506172778,0,0,0.06172839506172778,0,0)" xlink:href="#H"/><use transform="matrix(0.06172839506172778,0,0,0.06172839506172778,14.814814814814667,0)" xlink:href="#I"/><use transform="matrix(0.06172839506172778,0,0,0.06172839506172778,27.160493827160224,0)" xlink:href="#J"/></g><path fill="#999" d="M59-47c-2 24 18 29 38 22v24C64 9 27 4 27-40v-127H5v-23h24l9-43h21v43h35v23H59v120" id="K"/><path fill="#999" d="M100-194c62-1 85 37 85 99 1 63-27 99-86 99S16-35 15-95c0-66 28-99 85-99zM99-20c44 1 53-31 53-75 0-43-8-75-51-75s-53 32-53 75 10 74 51 75" id="L"/><path fill="#999" d="M143 0L79-87 56-68V0H24v-261h32v163l83-92h37l-77 82L181 0h-38" id="M"/><path fill="#999" d="M100-194c63 0 86 42 84 106H49c0 40 14 67 53 68 26 1 43-12 49-29l28 8c-11 28-37 45-77 45C44 4 14-33 15-96c1-61 26-98 85-98zm52 81c6-60-76-77-97-28-3 7-6 17-6 28h103" id="N"/><path fill="#999" d="M135-143c-3-34-86-38-87 0 15 53 115 12 119 90S17 21 10-45l28-5c4 36 97 45 98 0-10-56-113-15-118-90-4-57 82-63 122-42 12 7 21 19 24 35" id="O"/><g id="f"><use transform="matrix(0.06172839506172778,0,0,0.06172839506172778,0,0)" xlink:href="#H"/><use transform="matrix(0.06172839506172778,0,0,0.06172839506172778,14.814814814814667,0)" xlink:href="#K"/><use transform="matrix(0.06172839506172778,0,0,0.06172839506172778,20.987654320987446,0)" xlink:href="#L"/><use transform="matrix(0.06172839506172778,0,0,0.06172839506172778,33.333333333333,0)" xlink:href="#M"/><use transform="matrix(0.06172839506172778,0,0,0.06172839506172778,44.444444444444,0)" xlink:href="#N"/><use transform="matrix(0.06172839506172778,0,0,0.06172839506172778,56.79012345678956,0)" xlink:href="#O"/></g><path fill="#999" d="M32 76v-337h29V76H32" id="P"/><use transform="matrix(0.06172839506172778,0,0,0.06172839506172778,0,0)" xlink:href="#P" id="g"/><path fill="#999" d="M205 0l-28-72H64L36 0H1l101-248h38L239 0h-34zm-38-99l-47-123c-12 45-31 82-46 123h93" id="Q"/><path fill="#999" d="M84 4C-5 8 30-112 23-190h32v120c0 31 7 50 39 49 72-2 45-101 50-169h31l1 190h-30c-1-10 1-25-2-33-11 22-28 36-60 37" id="R"/><path fill="#999" d="M177-190C167-65 218 103 67 71c-23-6-38-20-44-43l32-5c15 47 100 32 89-28v-30C133-14 115 1 83 1 29 1 15-40 15-95c0-56 16-97 71-98 29-1 48 16 59 35 1-10 0-23 2-32h30zM94-22c36 0 50-32 50-73 0-42-14-75-50-75-39 0-46 34-46 75s6 73 46 73" id="S"/><g id="h"><use transform="matrix(0.06172839506172778,0,0,0.06172839506172778,0,0)" xlink:href="#Q"/><use transform="matrix(0.06172839506172778,0,0,0.06172839506172778,14.814814814814667,0)" xlink:href="#R"/><use transform="matrix(0.06172839506172778,0,0,0.06172839506172778,27.160493827160224,0)" xlink:href="#S"/><use transform="matrix(0.06172839506172778,0,0,0.06172839506172778,39.50617283950578,0)" xlink:href="#R"/><use transform="matrix(0.06172839506172778,0,0,0.06172839506172778,51.851851851851336,0)" xlink:href="#O"/><use transform="matrix(0.06172839506172778,0,0,0.06172839506172778,62.96296296296234,0)" xlink:href="#K"/></g><path fill="#999" d="M27 0v-27h64v-190l-56 39v-29l58-41h29v221h61V0H27" id="T"/><path fill="#999" d="M110-160c48 1 74 30 74 79 0 53-28 85-80 85-65 0-83-55-86-122-5-90 50-162 133-122 14 7 22 21 27 39l-31 6c-5-40-67-38-82-6-9 19-15 44-15 74 11-20 30-34 60-33zm-7 138c34 0 49-23 49-58s-16-56-50-56c-29 0-50 16-49 49 1 36 15 65 50 65" id="U"/><path fill="#999" d="M68-38c1 34 0 65-14 84H32c9-13 17-26 17-46H33v-38h35" id="V"/><g id="i"><use transform="matrix(0.06172839506172778,0,0,0.06172839506172778,0,0)" xlink:href="#T"/><use transform="matrix(0.06172839506172778,0,0,0.06172839506172778,12.345679012345556,0)" xlink:href="#U"/><use transform="matrix(0.06172839506172778,0,0,0.06172839506172778,24.691358024691112,0)" xlink:href="#V"/></g><path fill="#999" d="M101-251c82-7 93 87 43 132L82-64C71-53 59-42 53-27h129V0H18c2-99 128-94 128-182 0-28-16-43-45-43s-46 15-49 41l-32-3c6-41 34-60 81-64" id="W"/><path fill="#999" d="M101-251c68 0 85 55 85 127S166 4 100 4C33 4 14-52 14-124c0-73 17-127 87-127zm-1 229c47 0 54-49 54-102s-4-102-53-102c-51 0-55 48-55 102 0 53 5 102 54 102" id="X"/><path fill="#999" d="M64 0c3-98 48-159 88-221H18v-27h164v26C143-157 98-101 97 0H64" id="Y"/><g id="j"><use transform="matrix(0.06172839506172778,0,0,0.06172839506172778,0,0)" xlink:href="#W"/><use transform="matrix(0.06172839506172778,0,0,0.06172839506172778,12.345679012345556,0)" xlink:href="#X"/><use transform="matrix(0.06172839506172778,0,0,0.06172839506172778,24.691358024691112,0)" xlink:href="#T"/><use transform="matrix(0.06172839506172778,0,0,0.06172839506172778,37.03703703703667,0)" xlink:href="#Y"/></g><path fill="#333" d="M67-125c0 53 21 87 73 88 37 1 54-22 65-47l45 17C233-25 199 4 140 4 58 4 20-42 15-125 8-235 124-281 211-232c18 10 29 29 36 50l-46 12c-8-25-30-41-62-41-52 0-71 34-72 86" id="Z"/><path fill="#333" d="M85 4C-2 5 27-109 22-190h50c7 57-23 150 33 157 60-5 35-97 40-157h50l1 190h-47c-2-12 1-28-3-38-12 25-28 42-61 42" id="aa"/><path fill="#333" d="M137-138c1-29-70-34-71-4 15 46 118 7 119 86 1 83-164 76-172 9l43-7c4 19 20 25 44 25 33 8 57-30 24-41C81-84 22-81 20-136c-2-80 154-74 161-7" id="ab"/><path fill="#333" d="M115-3C79 11 28 4 28-45v-112H4v-33h27l15-45h31v45h36v33H77v99c-1 23 16 31 38 25v30" id="ac"/><path fill="#333" d="M110-194c64 0 96 36 96 99 0 64-35 99-97 99-61 0-95-36-95-99 0-62 34-99 96-99zm-1 164c35 0 45-28 45-65 0-40-10-65-43-65-34 0-45 26-45 65 0 36 10 65 43 65" id="ad"/><path fill="#333" d="M220-157c-53 9-28 100-34 157h-49v-107c1-27-5-49-29-50C55-147 81-57 75 0H25l-1-190h47c2 12-1 28 3 38 10-53 101-56 108 0 13-22 24-43 59-42 82 1 51 116 57 194h-49v-107c-1-25-5-48-29-50" id="ae"/><path fill="#333" d="M185-48c-13 30-37 53-82 52C43 2 14-33 14-96s30-98 90-98c62 0 83 45 84 108H66c0 31 8 55 39 56 18 0 30-7 34-22zm-45-69c5-46-57-63-70-21-2 6-4 13-4 21h74" id="af"/><path fill="#333" d="M135-150c-39-12-60 13-60 57V0H25l-1-190h47c2 13-1 29 3 40 6-28 27-53 61-41v41" id="ag"/><g id="k"><use transform="matrix(0.05,0,0,0.05,0,0)" xlink:href="#Z"/><use transform="matrix(0.05,0,0,0.05,12.950000000000001,0)" xlink:href="#aa"/><use transform="matrix(0.05,0,0,0.05,23.900000000000002,0)" xlink:href="#ab"/><use transform="matrix(0.05,0,0,0.05,33.900000000000006,0)" xlink:href="#ac"/><use transform="matrix(0.05,0,0,0.05,39.85000000000001,0)" xlink:href="#ad"/><use transform="matrix(0.05,0,0,0.05,50.80000000000001,0)" xlink:href="#ae"/><use transform="matrix(0.05,0,0,0.05,66.80000000000001,0)" xlink:href="#af"/><use transform="matrix(0.05,0,0,0.05,76.80000000000001,0)" xlink:href="#ag"/></g><path fill="#333" d="M24-248c93 1 206-16 204 79-1 75-69 88-152 82V0H24v-248zm52 121c47 0 100 7 100-41 0-47-54-39-100-39v80" id="ah"/><path fill="#333" d="M88-194c31-1 46 15 58 34l-1-101h50l1 261h-48c-2-10 0-23-3-31C134-8 116 4 84 4 32 4 16-41 15-95c0-56 19-97 73-99zm17 164c33 0 40-30 41-66 1-37-9-64-41-64s-38 30-39 65c0 43 13 65 39 65" id="ai"/><g id="l"><use transform="matrix(0.05,0,0,0.05,0,0)" xlink:href="#ah"/><use transform="matrix(0.05,0,0,0.05,12,0)" xlink:href="#ag"/><use transform="matrix(0.05,0,0,0.05,19,0)" xlink:href="#ad"/><use transform="matrix(0.05,0,0,0.05,29.950000000000003,0)" xlink:href="#ai"/></g><path fill="#333" d="M186 0v-106H76V0H24v-248h52v99h110v-99h50V0h-50" id="aj"/><path fill="#333" d="M135-194c87-1 58 113 63 194h-50c-7-57 23-157-34-157-59 0-34 97-39 157H25l-1-190h47c2 12-1 28 3 38 12-26 28-41 61-42" id="ak"/><path fill="#333" d="M123 10C108 53 80 86 19 72V37c35 8 53-11 59-39L3-190h52l48 148c12-52 28-100 44-148h51" id="al"/><path fill="#333" d="M190-63c-7 42-38 67-86 67-59 0-84-38-90-98-12-110 154-137 174-36l-49 2c-2-19-15-32-35-32-30 0-35 28-38 64-6 74 65 87 74 30" id="am"/><path fill="#333" d="M135-194c52 0 70 43 70 98 0 56-19 99-73 100-30 1-46-15-58-35L72 0H24l1-261h50v104c11-23 29-37 60-37zM114-30c31 0 40-27 40-66 0-37-7-63-39-63s-41 28-41 65c0 36 8 64 40 64" id="an"/><g id="m"><use transform="matrix(0.05,0,0,0.05,0,0)" xlink:href="#aj"/><use transform="matrix(0.05,0,0,0.05,12.950000000000001,0)" xlink:href="#ad"/><use transform="matrix(0.05,0,0,0.05,23.900000000000002,0)" xlink:href="#ak"/><use transform="matrix(0.05,0,0,0.05,34.85,0)" xlink:href="#af"/><use transform="matrix(0.05,0,0,0.05,44.85,0)" xlink:href="#al"/><use transform="matrix(0.05,0,0,0.05,54.85,0)" xlink:href="#am"/><use transform="matrix(0.05,0,0,0.05,64.85,0)" xlink:href="#ad"/><use transform="matrix(0.05,0,0,0.05,75.8,0)" xlink:href="#ae"/><use transform="matrix(0.05,0,0,0.05,91.8,0)" xlink:href="#an"/></g><path fill="#333" d="M199 0l-22-63H83L61 0H9l90-248h61L250 0h-51zm-33-102l-36-108c-10 38-24 72-36 108h72" id="ao"/><path fill="#333" d="M24 0v-248h52V0H24" id="ap"/><g id="n"><use transform="matrix(0.05,0,0,0.05,0,0)" xlink:href="#ao"/><use transform="matrix(0.05,0,0,0.05,12.950000000000001,0)" xlink:href="#ah"/><use transform="matrix(0.05,0,0,0.05,24.950000000000003,0)" xlink:href="#ap"/></g><g id="o"><use transform="matrix(0.05,0,0,0.05,0,0)" xlink:href="#Z"/><use transform="matrix(0.05,0,0,0.05,12.950000000000001,0)" xlink:href="#aa"/><use transform="matrix(0.05,0,0,0.05,23.900000000000002,0)" xlink:href="#ab"/><use transform="matrix(0.05,0,0,0.05,33.900000000000006,0)" xlink:href="#ac"/><use transform="matrix(0.05,0,0,0.05,39.85000000000001,0)" xlink:href="#ad"/><use transform="matrix(0.05,0,0,0.05,50.80000000000001,0)" xlink:href="#ae"/><use transform="matrix(0.05,0,0,0.05,66.80000000000001,0)" xlink:href="#af"/><use transform="matrix(0.05,0,0,0.05,76.80000000000001,0)" xlink:href="#ag"/></g><path fill="#333" d="M133-34C117-15 103 5 69 4 32 3 11-16 11-54c-1-60 55-63 116-61 1-26-3-47-28-47-18 1-26 9-28 27l-52-2c7-38 36-58 82-57s74 22 75 68l1 82c-1 14 12 18 25 15v27c-30 8-71 5-69-32zm-48 3c29 0 43-24 42-57-32 0-66-3-65 30 0 17 8 27 23 27" id="aq"/><path fill="#333" d="M135-194c53 0 70 44 70 98 0 56-19 98-73 100-31 1-45-17-59-34 3 33 2 69 2 105H25l-1-265h48c2 10 0 23 3 31 11-24 29-35 60-35zM114-30c33 0 39-31 40-66 0-38-9-64-40-64-56 0-55 130 0 130" id="ar"/><g id="p"><use transform="matrix(0.05,0,0,0.05,0,0)" xlink:href="#aq"/><use transform="matrix(0.05,0,0,0.05,10,0)" xlink:href="#ar"/><use transform="matrix(0.05,0,0,0.05,20.950000000000003,0)" xlink:href="#ar"/></g><path fill="#333" d="M24 0v-248h195v40H76v63h132v40H76v65h150V0H24" id="as"/><path fill="#333" d="M128 0H69L1-190h53L99-40l48-150h52" id="at"/><g id="q"><use transform="matrix(0.05,0,0,0.05,0,0)" xlink:href="#as"/><use transform="matrix(0.05,0,0,0.05,12,0)" xlink:href="#at"/><use transform="matrix(0.05,0,0,0.05,22,0)" xlink:href="#af"/><use transform="matrix(0.05,0,0,0.05,32,0)" xlink:href="#ak"/><use transform="matrix(0.05,0,0,0.05,42.95,0)" xlink:href="#ac"/><use transform="matrix(0.05,0,0,0.05,48.900000000000006,0)" xlink:href="#ab"/></g><path fill="#333" d="M195 0l-88-114-31 24V0H24v-248h52v113l112-113h60L142-143 257 0h-62" id="au"/><path fill="#333" d="M121-226c-27-7-43 5-38 36h38v33H83V0H34v-157H6v-33h28c-9-59 32-81 87-68v32" id="av"/><path fill="#333" d="M147 0L96-86 75-71V0H25v-261h50v150l67-79h53l-66 74L201 0h-54" id="aw"/><g id="r"><use transform="matrix(0.05,0,0,0.05,0,0)" xlink:href="#au"/><use transform="matrix(0.05,0,0,0.05,12.950000000000001,0)" xlink:href="#aq"/><use transform="matrix(0.05,0,0,0.05,22.950000000000003,0)" xlink:href="#av"/><use transform="matrix(0.05,0,0,0.05,28.900000000000002,0)" xlink:href="#aw"/><use transform="matrix(0.05,0,0,0.05,38.900000000000006,0)" xlink:href="#aq"/></g><path fill="#333" d="M25-224v-37h50v37H25zM25 0v-190h50V0H25" id="ax"/><g id="s"><use transform="matrix(0.05,0,0,0.05,0,0)" xlink:href="#ar"/><use transform="matrix(0.05,0,0,0.05,10.950000000000001,0)" xlink:href="#aq"/><use transform="matrix(0.05,0,0,0.05,20.950000000000003,0)" xlink:href="#ag"/><use transform="matrix(0.05,0,0,0.05,27.950000000000003,0)" xlink:href="#ac"/><use transform="matrix(0.05,0,0,0.05,33.900000000000006,0)" xlink:href="#ax"/><use transform="matrix(0.05,0,0,0.05,38.900000000000006,0)" xlink:href="#ac"/><use transform="matrix(0.05,0,0,0.05,44.85000000000001,0)" xlink:href="#ax"/><use transform="matrix(0.05,0,0,0.05,49.85000000000001,0)" xlink:href="#ad"/><use transform="matrix(0.05,0,0,0.05,60.80000000000001,0)" xlink:href="#ak"/></g><path fill="#333" d="M23 0v-37h61v-169l-59 37v-38l62-41h46v211h57V0H23" id="ay"/><use transform="matrix(0.05,0,0,0.05,0,0)" xlink:href="#ay" id="t"/><path fill="#333" d="M182-182c0 78-84 86-111 141h115V0H12c-6-101 99-100 120-180 1-22-12-31-33-32-23 0-32 14-35 34l-49-3c5-45 32-70 84-70 51 0 83 22 83 69" id="az"/><use transform="matrix(0.05,0,0,0.05,0,0)" xlink:href="#az" id="u"/><path fill="#333" d="M240-174c0 40-23 61-54 70L253 0h-59l-57-94H76V0H24v-248c93 4 217-23 216 74zM76-134c48-2 112 12 112-38 0-48-66-32-112-35v73" id="aA"/><g id="v"><use transform="matrix(0.05,0,0,0.05,0,0)" xlink:href="#aA"/><use transform="matrix(0.05,0,0,0.05,12.950000000000001,0)" xlink:href="#af"/><use transform="matrix(0.05,0,0,0.05,22.950000000000003,0)" xlink:href="#ac"/><use transform="matrix(0.05,0,0,0.05,28.900000000000002,0)" xlink:href="#ag"/><use transform="matrix(0.05,0,0,0.05,35.900000000000006,0)" xlink:href="#ax"/><use transform="matrix(0.05,0,0,0.05,40.900000000000006,0)" xlink:href="#af"/><use transform="matrix(0.05,0,0,0.05,50.900000000000006,0)" xlink:href="#at"/><use transform="matrix(0.05,0,0,0.05,60.900000000000006,0)" xlink:href="#af"/><use transform="matrix(0.05,0,0,0.05,70.9,0)" xlink:href="#ag"/></g><path fill="#333" d="M182-130c37 4 62 22 62 59C244 23 116-4 24 0v-248c84 5 203-23 205 63 0 31-19 50-47 55zM76-148c40-3 101 13 101-30 0-44-60-28-101-31v61zm0 110c48-3 116 14 116-37 0-48-69-32-116-35v72" id="aB"/><path fill="#333" d="M169-182c-1-43-94-46-97-3 18 66 151 10 154 114 3 95-165 93-204 36-6-8-10-19-12-30l50-8c3 46 112 56 116 5-17-69-150-10-154-114-4-87 153-88 188-35 5 8 8 18 10 28" id="aC"/><g id="w"><use transform="matrix(0.05,0,0,0.05,0,0)" xlink:href="#as"/><use transform="matrix(0.05,0,0,0.05,12,0)" xlink:href="#aB"/><use transform="matrix(0.05,0,0,0.05,24.950000000000003,0)" xlink:href="#aC"/></g></defs></g></svg>